<svg width="1850" height="637" viewBox="0 0 1850 637" fill="none" xmlns="http://www.w3.org/2000/svg">
<path d="M935.698 624.709C862.045 634.35 787.729 637.894 713.499 635.304C281.183 623.518 -3.02972e-05 479.942 -1.90671e-05 351.485C-1.00331e-05 248.148 140.473 164.336 259.271 133.383C189.508 178.027 90.6087 217.79 92.2669 325.889C93.6882 423.63 296.344 584.707 731.858 615.542C855.749 624.232 887.018 624.709 935.698 624.709Z" fill="#003C71"/>
<path d="M243.845 333.852C243.845 436.445 377.645 527.4 583.984 583.921C324.338 531.2 148.273 428.845 148.273 310.817C148.273 139.473 522.842 -5.98486 984.434 0.189721C1145.66 2.32708 1205.5 16.9322 1229.24 21.6819C1188.99 21.6819 1225.32 23.1068 1079.89 22.8693C640.14 22.2755 243.845 162.271 243.845 333.852Z" fill="#0971CE"/>
<path d="M1849.5 218.425C1834.95 207.932 1819.69 198.469 1803.82 190.106C1663.21 115.575 1424.47 78.9614 1155.72 78.9614C724.05 78.9614 350.64 221.98 350.64 377.795C351.847 415.741 366.67 451.991 392.407 479.934C384.122 474.354 376.196 468.26 368.676 461.687C351.878 447.147 338.25 429.316 328.637 409.301C319.024 389.285 313.629 367.511 312.789 345.329C312.789 189.395 686.673 41.2813 1118.82 41.2813C1387.57 41.2813 1625.36 82.9901 1765.49 157.521C1796.47 173.37 1824.81 193.915 1849.5 218.425V218.425Z" fill="#00AEEF"/>
</svg>
