<svg width="148" height="107" viewBox="0 0 148 107" xmlns="http://www.w3.org/2000/svg" fill="none"><path d="M120.602 64.897c4.728-22.867-8.706-45.52-30.005-50.597-21.299-5.076-42.398 9.346-47.126 32.214-4.728 22.867 8.705 45.52 30.004 50.597 21.299 5.076 42.398-9.346 47.126-32.214zM.067 37.982l8.704 19.53c2.009-.959 3.906-2.037 5.803-2.995-3.013-6.59-5.803-13.06-8.705-19.53-2.009.959-3.906 2.037-5.803 2.995zM142.129 35.825l-8.704 19.53c2.009.959 3.906 2.037 5.803 2.995 2.901-6.47 5.803-12.94 8.704-19.53-1.897-.959-3.794-1.917-5.803-2.995z" fill="#FF368A"/><path d="M136.215 20.968c-2.12 4.673-4.24 9.346-6.472 14.138-2.344-1.198-4.687-2.396-6.919-3.594.558-1.198 1.116-2.277 1.562-3.235 2.344-5.152 4.018-10.304 3.906-16.175-.112-3.115-.558-6.23-2.232-8.866-1.897-2.995-5.133-4.074-8.146-2.516-1.451.839-2.902 1.917-4.018 3.235-5.357 6.59-5.357 16.295-.112 23.364 1.34 1.797 3.014 3.475 4.687 5.272-1.004 1.677-2.12 3.355-3.124 5.152-6.473-16.774-21.873-28.516-39.728-28.516s-33.256 11.742-39.728 28.516c0-.12-.112-.12-.112-.12-.781-1.198-1.451-2.396-2.232-3.475 1.004-1.078 2.009-1.917 2.901-2.995 4.799-5.512 6.696-11.982 4.687-19.41-1.116-4.313-3.348-8.028-7.142-10.304-3.906-2.396-7.812-1.078-9.709 3.235-1.674 3.834-1.785 7.908-1.227 12.101.781 5.512 3.013 10.544 5.58 15.456.112.359.335.599.558 1.198-3.236 1.558-6.361 3.115-9.597 4.553-2.678-5.871-5.245-11.382-7.812-17.014l-5.803 3.115c5.468 12.101 10.936 24.083 16.516 36.064 2.009-1.078 3.794-2.037 5.803-2.995-2.455-5.392-4.91-10.664-7.254-15.935 3.348-1.677 6.473-3.235 9.821-4.793v-.12h.112l3.013 4.673.223.359.335.479c-1.228 4.313-1.897 8.986-1.897 13.659 0 21.327 13.503 39.3 31.805 44.571l2.232.599.67.12c.112 0 .223 0 .446.12 2.567.479 5.133.719 7.812.719 2.901 0 5.691-.36 8.37-.839v.12l3.013-.719v-.12c18.191-5.392 31.582-23.244 31.582-44.452 0-4.793-.669-9.465-2.009-13.779.447-.599.67-1.078.67-1.078l3.683-5.751.223-.24c2.455 1.318 4.798 2.516 7.142 3.714-2.79 6.23-5.691 12.461-8.481 18.811 2.008 1.078 3.794 2.037 5.691 3.115 5.58-12.101 11.048-24.083 16.516-36.065-2.008-1.318-3.906-2.276-5.803-3.355zm-104.677 10.304c-1.228-2.756-2.455-5.272-3.571-8.028-1.451-3.475-2.232-7.189-2.12-11.023 0-2.157.335-4.313 1.339-6.23 1.116-2.276 2.79-2.756 4.91-1.558 2.79 1.558 4.575 4.313 5.58 7.429 2.232 7.069.335 12.94-4.464 17.972-.446.479-1.004.839-1.674 1.438zm4.129 24.203c0-3.595.446-6.949 1.228-10.304l.112.24c.558.719 1.004 1.438 1.562 2.037l15.512 19.29c3.46 4.313 6.919 8.507 9.486 13.659 1.897 3.834 3.125 7.788 2.79 12.101-.112 1.438-.558 2.876-.893 4.194v.12c-17.186-4.793-29.796-21.447-29.796-41.336zm39.84 42.774c-2.344 0-4.575-.24-6.807-.599l.112-.359c.335-1.917.67-3.834.781-5.631.223-5.631-1.785-10.664-4.464-15.336-2.79-4.793-6.249-8.986-9.709-13.18-5.58-6.949-11.048-14.018-16.628-20.968-.112-.12-.335-.479-.669-1.078 5.468-16.534 20.199-28.396 37.496-28.396 13.503 0 25.332 7.189 32.587 18.212-7.477 8.986-15.177 17.014-25.221 22.286.558-1.917 1.116-3.714 1.451-5.511.893-4.913.558-9.825.112-14.617-.112-1.677-.112-3.235-.112-4.912 0-.479.223-.959.223-1.318 1.897.359 4.017 2.995 4.352 5.152.223 1.797-.112 2.876-2.232 6.59.781.719 1.562 1.318 2.232 2.037 5.133-4.913 3.571-14.378-2.901-17.014-2.009-.839-3.794 0-4.464 2.276-.781 2.396-.558 4.793-.335 7.309.446 4.673.781 9.465-.112 14.138-.223 1.078-.446 2.276-.893 3.235-2.009 5.152-7.477 6.111-10.936 2.037-1.897-2.157-2.678-4.912-3.236-7.668-.67-3.475-.893-7.069 0-10.544 1.451-5.512 6.584-8.028 10.936-5.272.335.24.669.479 1.116.839.112-1.198.335-2.277.335-3.355 0-.24-.446-.599-.67-.719-5.022-2.636-11.16-.359-13.726 5.032-1.674 3.475-2.009 7.189-1.674 11.023.335 4.194 1.228 8.267 3.459 11.862v.479c-8.481-4.553-15.4-11.143-22.208-18.092-.446 1.078-.893 1.917-1.228 2.876-.112.24.112.719.335.959 4.352 4.433 8.928 8.627 13.838 12.341 3.013 2.276 6.138 4.194 9.486 5.631 2.901 1.198 5.691 1.438 8.816 1.198 8.035-.599 14.284-5.152 20.422-10.064 4.91-4.074 9.374-8.747 13.503-13.779.223-.24.447-.479.781-.959 1.228 2.277 2.232 4.553 3.125 7.069l-.558.719c-.111.12-.111.24-.223.24-3.906 5.032-7.812 10.064-11.829 15.217-4.018 5.032-8.035 10.065-11.941 15.217-2.455 3.235-4.464 6.83-5.691 10.783-1.562 4.673-2.009 9.465-.223 14.378-2.12 0-4.464.24-6.807.24zm39.84-42.774c0 19.77-12.611 36.544-29.573 41.336v-.12c-1.116-2.396-1.339-4.912-1.116-7.429.558-4.793 2.344-9.106 5.133-12.94 3.348-4.673 6.919-9.226 10.49-13.659 4.353-5.511 8.816-11.023 13.169-16.535l.334-.359c.112-.12.224-.359.447-.599.669 3.235 1.116 6.71 1.116 10.304zm4.798-26.12c-8.369-6.47-9.15-17.014-3.682-23.364.781-.839 1.785-1.558 2.79-2.157 1.562-.719 2.79-.24 3.794 1.198 1.227 1.797 1.674 4.074 1.897 6.23.335 5.392-1.227 10.304-3.348 14.977-.446 1.078-.893 2.037-1.451 3.115z" fill="#fff"/></svg>