<svg width="666" height="158" viewBox="0 0 666 158" fill="none" xmlns="http://www.w3.org/2000/svg">
<path d="M82.6375 39.1142H56.0335V88.2207H37.3692V39.1142H10.9453V24.2188H82.6375V39.1142Z" fill="white"/>
<path d="M83.8281 56.2156C83.8281 34.5445 100.192 22.1016 125.522 22.1016C150.851 22.1016 167.312 34.5445 167.312 56.2156C167.312 77.8868 150.851 90.3297 125.522 90.3297C100.192 90.3297 83.8281 77.8868 83.8281 56.2156ZM148.301 56.2156C148.301 44.1468 139.613 37.288 125.535 37.288C111.541 37.288 102.77 44.1468 102.77 56.2156C102.77 68.2844 111.457 75.1432 125.535 75.1432C139.613 75.1432 148.301 68.2844 148.301 56.2156Z" fill="white"/>
<path d="M252.105 76.1547C245.246 84.6625 232.623 90.3297 215.525 90.3297C189.281 90.3297 173 77.8868 173 56.2156C173 34.5445 189.281 22.1016 215.525 22.1016C231.349 22.1016 242.78 27.6856 249.445 33.8932L235.824 43.9528C230.337 39.02 224.573 36.8169 215.982 36.8169C200.435 36.8169 191.928 43.6757 191.928 56.2018C191.928 68.8248 200.712 75.6836 216.245 75.6836C224.116 75.6836 230.323 74.1317 234.813 70.0164V64.2522H213.599V51.1858H252.091V76.1547H252.105Z" fill="white"/>
<path d="M330.296 73.9687V88.2268H261.984V24.2109H329.284V38.469H280.358V48.9859H320.679V62.6066H280.358V73.941H330.296V73.9687Z" fill="white"/>
<path d="M405.184 39.1142H378.58V88.2207H359.916V39.1142H333.492V24.2188H405.184V39.1142Z" fill="white"/>
<path d="M487.763 24.2248V88.2406H469.099V63.4518H430.69V88.2268H412.039V24.2109H430.69V48.0714H469.099V24.2248H487.763Z" fill="white"/>
<path d="M569.061 73.9687V88.2268H500.75V24.2109H568.05V38.469H519.123V48.9859H559.445V62.6066H519.123V73.941H569.061V73.9687Z" fill="white"/>
<path d="M632.621 88.2268L615.703 68.0244H596.872V88.2268H578.305V24.2109H623.199C639.563 24.2109 652.283 31.43 652.283 46.0622C652.283 56.7592 645.521 63.5211 635.462 66.4586L654.292 88.2268H632.621ZM621.827 54.4868C628.506 54.4868 633.342 52.6578 633.342 46.4363C633.342 40.2149 628.492 38.3859 621.827 38.3859H596.775V54.473H621.827V54.4868Z" fill="white"/>
<path d="M62.1703 109.734L52.277 136.893H44.4066L38.0882 117.993L31.7282 136.893H23.9271L13.9922 109.734H22.0981L28.0286 128.399L34.5133 109.734H41.8017L48.2864 128.399L54.2168 109.734H62.1703Z" fill="white"/>
<path d="M94.7997 130.837V136.893H65.8125V109.734H94.3702V115.79H73.6136V120.251H90.726V126.029H73.6136V130.837H94.7997Z" fill="white"/>
<path d="M134.057 127.189L140.846 130.681C138.324 134.672 132.851 137.776 125.521 137.776C115.281 137.776 108.367 132.455 108.367 123.31C108.367 114.151 115.268 108.844 125.826 108.844C132.851 108.844 138.283 112.031 140.722 115.91L133.89 119.402C132.103 116.603 129.346 115.287 125.701 115.287C120.117 115.287 116.39 118.114 116.39 123.324C116.39 128.533 120.117 131.36 125.701 131.36C129.373 131.332 132.158 130.099 134.057 127.189Z" fill="white"/>
<path d="M166.454 131.697H151.559L148.995 136.893H140.695L154.746 109.734H163.392L177.442 136.893H169.017L166.454 131.697ZM163.711 126.071L159.013 116.455L154.274 126.071H163.711Z" fill="white"/>
<path d="M212.656 109.734V136.893H205.714L188.172 119.046V136.893H180.523V109.734H188.92L205.021 126.334V109.734H212.656Z" fill="white"/>
<path d="M266.941 109.734V136.893H259.071V119.545L248.249 132.819H247.861L237.039 119.545V136.893H229.391V109.734H238.037L248.235 122.773L258.516 109.734H266.941Z" fill="white"/>
<path d="M271.875 123.31C271.875 114.109 278.817 108.844 289.569 108.844C300.322 108.844 307.305 114.123 307.305 123.31C307.305 132.51 300.322 137.776 289.569 137.776C278.817 137.776 271.875 132.496 271.875 123.31ZM299.227 123.31C299.227 118.183 295.541 115.273 289.569 115.273C283.639 115.273 279.912 118.183 279.912 123.31C279.912 128.436 283.597 131.346 289.569 131.346C295.541 131.346 299.227 128.423 299.227 123.31Z" fill="white"/>
<path d="M315.989 109.734L324.954 129.286L333.877 109.734H342.329L329.027 136.893H320.727L307.453 109.734H315.989Z" fill="white"/>
<path d="M374.409 130.837V136.893H345.422V109.734H373.98V115.79H353.223V120.251H370.335V126.029H353.223V130.837H374.409Z" fill="white"/>
<path d="M410.681 131.697H395.785L393.222 136.893H384.922L398.972 109.734H407.618L421.669 136.893H413.244L410.681 131.697ZM407.923 126.071L403.226 116.455L398.487 126.071H407.923Z" fill="white"/>
<path d="M456.898 109.734V136.893H449.956L432.414 119.046V136.893H424.766V109.734H433.149L449.25 126.334V109.734H456.898Z" fill="white"/>
<path d="M468.872 109.734L476.783 121.457L484.654 109.734H493.466L480.705 127.734V136.893H472.793V127.734L460.031 109.734H468.872Z" fill="white"/>
<path d="M524.485 116.053H513.192V136.893H505.28V116.053H494.07V109.734H524.485V116.053Z" fill="white"/>
<path d="M560.478 109.734V136.893H552.566V126.376H536.271V136.893H528.359V109.734H536.271V119.863H552.566V109.734H560.478Z" fill="white"/>
<path d="M566.953 136.893V109.734H574.865V136.893H566.953Z" fill="white"/>
<path d="M613.5 109.734V136.893H606.558L589.016 119.046V136.893H581.367V109.734H589.75L605.851 126.334V109.734H613.5Z" fill="white"/>
<path d="M651.997 131.762C649.087 135.365 643.739 137.776 636.478 137.776C625.338 137.776 618.438 132.496 618.438 123.31C618.438 114.109 625.338 108.844 636.478 108.844C643.185 108.844 648.034 111.213 650.875 113.846L645.097 118.114C642.769 116.021 640.33 115.093 636.672 115.093C630.077 115.093 626.474 118.003 626.474 123.324C626.474 128.672 630.201 131.582 636.797 131.582C640.136 131.582 642.769 130.917 644.667 129.171V126.732H635.661V121.19H651.997V131.762Z" fill="white"/>
<path d="M666 0H0V3.65805H666V0Z" fill="white"/>
<path d="M666 153.594H0V157.252H666V153.594Z" fill="white"/>
</svg>
