<svg width="350" height="52" viewBox="0 0 350 52" fill="none" xmlns="http://www.w3.org/2000/svg">
<path d="M79.1188 51.0538C72.891 51.8516 66.6071 52.1449 60.3306 51.9305C23.7757 50.9553 0 39.0749 0 28.4456C0 19.8949 11.8778 12.9597 21.9229 10.3984C16.0241 14.0926 7.6615 17.3828 7.80171 26.3276C7.92189 34.4153 25.0576 47.7438 61.8829 50.2953C72.3586 51.0144 75.0026 51.0538 79.1188 51.0538Z" fill="white"/>
<path d="M20.1325 27.5008C20.1325 35.9517 31.4195 43.4441 48.8258 48.1C26.9227 43.7571 12.0703 35.3258 12.0703 25.6032C12.0703 11.489 43.668 -0.493 82.6069 0.015622C96.2074 0.191684 101.255 1.39477 103.258 1.78602C99.8629 1.78602 102.928 1.90339 90.659 1.88383C53.563 1.83493 20.1325 13.367 20.1325 27.5008Z" fill="white"/>
<path d="M156.897 18.5981C155.666 17.7273 154.374 16.942 153.03 16.2481C141.128 10.0634 120.92 7.02518 98.1711 7.02518C61.632 7.02518 30.0243 18.893 30.0243 31.8228C30.1264 34.9716 31.3812 37.9797 33.5597 40.2984C32.8583 39.8354 32.1874 39.3297 31.5509 38.7842C30.1291 37.5777 28.9755 36.0981 28.1618 34.4372C27.348 32.7763 26.8914 30.9694 26.8203 29.1287C26.8203 16.1891 58.4682 3.89844 95.0475 3.89844C117.797 3.89844 137.924 7.35948 149.786 13.5441C152.409 14.8594 154.807 16.5642 156.897 18.5981Z" fill="white"/>
<path d="M84.2282 16.8984H52.0357C51.7377 16.8974 51.4447 16.9712 51.1859 17.1125C50.927 17.2539 50.7115 17.4577 50.5607 17.7037L37.6917 38.7732C37.5977 38.9269 37.5478 39.1017 37.5469 39.2798C37.546 39.4579 37.5941 39.633 37.6864 39.7877C37.7788 39.9423 37.912 40.0709 38.0728 40.1606C38.2336 40.2503 38.4163 40.2978 38.6024 40.2984H75.0318C75.4665 40.2994 75.8951 40.2001 76.2811 40.0088C76.6671 39.8174 76.9992 39.5398 77.2492 39.1995L82.3375 32.3595C82.5674 32.0423 82.6906 31.6655 82.6906 31.2795C82.6906 30.8935 82.5674 30.5167 82.3375 30.1995L81.7138 29.3184C81.6633 29.2449 81.6339 29.16 81.6285 29.0722C81.6231 28.9845 81.6419 28.8968 81.683 28.8182C81.7241 28.7395 81.7861 28.6726 81.8627 28.624C81.9394 28.5755 82.028 28.5471 82.1197 28.5416L83.6541 28.4374C83.9013 28.4239 84.1413 28.3531 84.3534 28.2309C84.5656 28.1088 84.7435 27.939 84.8717 27.7363L87.8415 23.189C88.2735 22.5408 88.5035 21.7883 88.5047 21.0195C88.5048 19.9314 88.0551 18.8875 87.254 18.1155C86.4528 17.3434 85.3652 16.906 84.2282 16.8984ZM70.7256 32.2647L69.4684 34.2447C69.3806 34.3724 69.2618 34.4779 69.1222 34.5522C68.9825 34.6264 68.8262 34.6672 68.6665 34.6711H51.8378C51.7496 34.6716 51.663 34.6495 51.5868 34.6073C51.5105 34.565 51.4475 34.504 51.4041 34.4306C51.3607 34.3573 51.3385 34.2741 51.34 34.1898C51.3414 34.1055 51.3663 34.0231 51.4121 33.9511L52.6198 32.0563C52.7086 31.9167 52.8337 31.8014 52.9829 31.7217C53.1321 31.642 53.3003 31.6006 53.4711 31.6016H70.2999C70.3817 31.601 70.4623 31.6207 70.5338 31.6587C70.6053 31.6966 70.6654 31.7516 70.7082 31.8183C70.751 31.885 70.7751 31.9611 70.7781 32.0393C70.7812 32.1175 70.7631 32.1952 70.7256 32.2647ZM75.7841 23.7384L74.517 25.7184C74.4292 25.8461 74.3104 25.9516 74.1708 26.0258C74.0312 26.1001 73.8749 26.1409 73.7152 26.1448H56.9359C56.8469 26.147 56.759 26.1262 56.6814 26.0846C56.6037 26.0431 56.5392 25.9823 56.4946 25.9086C56.4501 25.8349 56.4271 25.7511 56.4281 25.6659C56.4291 25.5808 56.454 25.4975 56.5003 25.4248L57.7179 23.53C57.8059 23.3917 57.9294 23.2773 58.0767 23.1977C58.224 23.1181 58.3902 23.076 58.5594 23.0753H75.3882C75.4647 23.0808 75.5387 23.1039 75.6039 23.1427C75.6691 23.1815 75.7234 23.2349 75.7623 23.2982C75.8013 23.3615 75.8236 23.4329 75.8274 23.5063C75.8312 23.5797 75.8163 23.6528 75.7841 23.7195V23.7384Z" fill="white"/>
<path d="M94.9715 18.0367L83.6162 35.5558C83.3135 36.0295 83.1496 36.5701 83.141 37.1227C83.1324 37.6753 83.2795 38.2201 83.5674 38.7019C83.8553 39.1837 84.2736 39.5852 84.7799 39.8656C85.2862 40.146 85.8625 40.2954 86.45 40.2984H120.839C120.977 40.2986 121.113 40.2633 121.232 40.1965C121.351 40.1297 121.449 40.0338 121.514 39.919L124.187 35.2713C124.217 35.2219 124.233 35.1658 124.233 35.1087C124.232 35.0516 124.216 34.9957 124.185 34.9465C124.155 34.8973 124.111 34.8567 124.058 34.8287C124.005 34.8008 123.945 34.7866 123.884 34.7875L96.3531 34.7117C96.2802 34.7113 96.2087 34.6928 96.1459 34.6581C96.083 34.6234 96.0311 34.5736 95.9952 34.5139C95.9594 34.4542 95.941 34.3867 95.9418 34.3181C95.9427 34.2496 95.9628 34.1825 96.0002 34.1236L97.7247 31.4203C97.7925 31.3136 97.8885 31.2252 98.0033 31.1637C98.1182 31.1022 98.248 31.0697 98.3801 31.0693H125.992C126.104 31.0677 126.214 31.0389 126.311 30.9858C126.409 30.9326 126.49 30.8569 126.547 30.7658L129.451 26.0232C129.484 25.9656 129.501 25.9008 129.499 25.8353C129.498 25.7698 129.478 25.7058 129.443 25.6494C129.407 25.5931 129.357 25.5463 129.296 25.5138C129.236 25.4812 129.168 25.4639 129.098 25.4636L101.809 25.5395C101.742 25.5392 101.676 25.5221 101.619 25.4899C101.562 25.4576 101.514 25.4115 101.482 25.3562C101.45 25.3009 101.435 25.2386 101.437 25.1757C101.44 25.1128 101.46 25.0517 101.496 24.9988L103.019 22.7888C103.071 22.7172 103.14 22.6584 103.22 22.6171C103.301 22.5759 103.391 22.5534 103.483 22.5516H130.712C130.976 22.5529 131.235 22.4854 131.462 22.3565C131.688 22.2276 131.871 22.0423 131.992 21.8213L134.009 18.2359C134.077 18.0952 134.107 17.9411 134.097 17.787C134.086 17.633 134.036 17.4836 133.951 17.3518C133.866 17.22 133.747 17.1099 133.606 17.0308C133.465 16.9518 133.306 16.9064 133.142 16.8984H97.1498C96.7136 16.8972 96.2843 17.0012 95.9029 17.2004C95.5215 17.3997 95.2009 17.6876 94.9715 18.0367Z" fill="white"/>
<path d="M227.784 18.0367L216.375 35.5558C216.071 36.0302 215.907 36.5717 215.899 37.125C215.891 37.6784 216.039 38.224 216.328 38.706C216.618 39.1881 217.038 39.5894 217.546 39.8692C218.055 40.1489 218.633 40.297 219.222 40.2984H253.651C253.789 40.2979 253.923 40.2623 254.041 40.1954C254.158 40.1286 254.254 40.0331 254.318 39.919L257.003 35.2713C257.031 35.2208 257.044 35.1644 257.042 35.1077C257.04 35.0509 257.023 34.9956 256.991 34.9471C256.96 34.8985 256.916 34.8584 256.863 34.8305C256.81 34.8025 256.751 34.7877 256.69 34.7875L229.127 34.7116C229.054 34.7113 228.982 34.6928 228.919 34.6581C228.856 34.6234 228.804 34.5736 228.768 34.5139C228.732 34.4542 228.714 34.3867 228.715 34.3181C228.716 34.2496 228.736 34.1825 228.773 34.1236L230.51 31.4203C230.575 31.3137 230.67 31.2252 230.783 31.1636C230.896 31.102 231.025 31.0695 231.156 31.0693H258.801C258.913 31.0677 259.023 31.0389 259.121 30.9858C259.218 30.9326 259.299 30.8569 259.356 30.7658L262.264 26.0232C262.297 25.9655 262.314 25.9008 262.312 25.8353C262.311 25.7698 262.291 25.7058 262.256 25.6494C262.22 25.5931 262.17 25.5463 262.109 25.5138C262.049 25.4812 261.98 25.4639 261.91 25.4636L234.589 25.5395C234.522 25.5392 234.456 25.5221 234.399 25.4899C234.341 25.4576 234.294 25.4115 234.262 25.3562C234.23 25.3009 234.214 25.2386 234.217 25.1757C234.219 25.1128 234.24 25.0517 234.276 24.9988L235.801 22.7887C235.853 22.7178 235.922 22.6593 236.003 22.6182C236.083 22.577 236.173 22.5542 236.265 22.5516H263.526C263.789 22.5512 264.047 22.4828 264.271 22.354C264.495 22.2252 264.678 22.0409 264.798 21.8213L266.767 18.2359C266.834 18.0952 266.865 17.9411 266.854 17.787C266.844 17.633 266.794 17.4836 266.709 17.3518C266.623 17.22 266.505 17.1098 266.363 17.0308C266.222 16.9518 266.063 16.9064 265.899 16.8984H229.924C229.494 16.9036 229.073 17.0106 228.699 17.2096C228.324 17.4086 228.01 17.693 227.784 18.0367Z" fill="white"/>
<path d="M124.773 39.5399L137.969 17.4673C138.074 17.3032 138.221 17.1668 138.396 17.0707C138.572 16.9745 138.77 16.9218 138.973 16.9174H144.426C144.594 16.9181 144.759 16.9523 144.911 17.0177C145.064 17.0831 145.2 17.1781 145.31 17.2967L159.009 31.9548C159.082 32.0333 159.174 32.094 159.277 32.1319C159.381 32.1698 159.492 32.1838 159.602 32.1726C159.712 32.1615 159.818 32.1255 159.911 32.0678C160.003 32.0101 160.079 31.9324 160.133 31.841L168.419 17.4673C168.516 17.2953 168.66 17.1514 168.837 17.0511C169.014 16.9509 169.217 16.8981 169.423 16.8985H178.954C179.082 16.8976 179.209 16.9288 179.321 16.9887C179.433 17.0487 179.526 17.1354 179.591 17.2401C179.656 17.3448 179.691 17.4639 179.692 17.5853C179.693 17.7067 179.66 17.8263 179.596 17.9319L166.089 39.7959C166.003 39.9487 165.874 40.0763 165.716 40.1649C165.559 40.2535 165.378 40.2996 165.195 40.2984H155.283C155.134 40.3 154.986 40.2702 154.85 40.2112C154.715 40.1521 154.595 40.0653 154.499 39.957L143.262 27.8968C143.203 27.8365 143.131 27.7899 143.05 27.7607C142.97 27.7316 142.883 27.7207 142.797 27.729C142.711 27.7373 142.628 27.7646 142.555 27.8085C142.483 27.8525 142.422 27.9119 142.378 27.9821L135.217 39.8907C135.146 40.0106 135.043 40.1106 134.918 40.1806C134.792 40.2505 134.65 40.2879 134.504 40.2889H125.235C125.143 40.2859 125.054 40.2611 124.975 40.2166C124.896 40.1722 124.831 40.1097 124.785 40.0348C124.738 39.96 124.713 39.8754 124.711 39.7888C124.709 39.7022 124.73 39.6166 124.773 39.5399Z" fill="white"/>
<path d="M169.037 39.5397L182.224 17.4673C182.33 17.3038 182.477 17.1679 182.652 17.0718C182.828 16.9758 183.026 16.9227 183.229 16.9174H188.692C188.858 16.9189 189.022 16.9534 189.172 17.0188C189.323 17.0842 189.457 17.1789 189.566 17.2967L203.285 31.9073C203.359 31.9858 203.451 32.0465 203.554 32.0844C203.657 32.1223 203.769 32.1362 203.879 32.1251C203.989 32.114 204.095 32.078 204.187 32.0203C204.28 31.9626 204.356 31.8849 204.41 31.7935L212.676 17.4673C212.773 17.2953 212.917 17.1514 213.094 17.0511C213.271 16.9509 213.474 16.8981 213.68 16.8985H223.211C223.34 16.8976 223.467 16.9288 223.579 16.9887C223.69 17.0487 223.784 17.1354 223.849 17.2401C223.914 17.3448 223.949 17.4639 223.95 17.5853C223.951 17.7067 223.918 17.8263 223.854 17.9319L210.346 39.7957C210.26 39.9485 210.131 40.0762 209.973 40.1647C209.816 40.2533 209.635 40.2995 209.452 40.2982H199.549C199.398 40.3013 199.249 40.2722 199.111 40.2131C198.974 40.154 198.852 40.0664 198.756 39.9569L187.517 27.8967C187.46 27.8364 187.389 27.7898 187.309 27.7606C187.229 27.7314 187.142 27.7205 187.057 27.7289C186.972 27.7372 186.89 27.7645 186.818 27.8085C186.746 27.8525 186.686 27.912 186.643 27.9821L179.472 39.8905C179.403 40.0118 179.3 40.1129 179.174 40.1831C179.049 40.2532 178.905 40.2898 178.759 40.2887H169.489C169.397 40.2868 169.307 40.2624 169.228 40.218C169.149 40.1735 169.084 40.1105 169.039 40.0351C168.993 39.9596 168.969 39.8744 168.969 39.7876C168.969 39.7007 168.992 39.6154 169.037 39.5397Z" fill="white"/>
<path d="M268.278 22.0836L271.078 17.3526C271.164 17.2172 271.285 17.1046 271.429 17.0253C271.573 16.9459 271.736 16.9023 271.902 16.8984H349.699C349.752 16.9004 349.805 16.9154 349.851 16.942C349.897 16.9685 349.935 17.0057 349.962 17.0502C349.988 17.0946 350.003 17.1448 350.004 17.196C350.005 17.2473 349.992 17.2979 349.967 17.3431L346.988 22.5945C346.94 22.673 346.873 22.7386 346.791 22.785C346.709 22.8314 346.616 22.857 346.521 22.8594H332.074C331.905 22.8627 331.74 22.907 331.594 22.9881C331.448 23.0693 331.326 23.1845 331.24 23.3231L321.102 39.7868C320.999 39.9486 320.853 40.0813 320.679 40.1712C320.504 40.261 320.307 40.3047 320.109 40.2977H310.18C310.082 40.2956 309.986 40.2696 309.901 40.2223C309.817 40.175 309.746 40.1079 309.696 40.0273C309.647 39.9468 309.619 39.8554 309.617 39.762C309.615 39.6686 309.638 39.5761 309.683 39.4934L318.858 23.6164C318.901 23.5412 318.923 23.4565 318.921 23.3707C318.92 23.285 318.895 23.2011 318.848 23.1275C318.802 23.0539 318.737 22.993 318.658 22.951C318.58 22.9089 318.491 22.8872 318.401 22.8878L295.435 22.9635C295.274 22.963 295.115 23.0029 294.976 23.0794C294.836 23.1558 294.721 23.266 294.64 23.3988L284.78 39.7205C284.672 39.8952 284.518 40.0402 284.334 40.1414C284.149 40.2425 283.941 40.2964 283.728 40.2977H274.583C274.458 40.2991 274.335 40.2688 274.226 40.2099C274.118 40.1511 274.027 40.0658 273.965 39.9628C273.902 39.8598 273.869 39.7428 273.87 39.6237C273.87 39.5047 273.904 39.3879 273.967 39.2853L283.559 23.588C283.602 23.5163 283.625 23.435 283.625 23.3522C283.626 23.2694 283.603 23.188 283.56 23.1161C283.517 23.0443 283.454 22.9845 283.379 22.9428C283.304 22.9011 283.219 22.8789 283.132 22.8784H268.754C268.657 22.8775 268.562 22.8525 268.478 22.8056C268.394 22.7588 268.325 22.6918 268.276 22.6114C268.228 22.531 268.203 22.4399 268.203 22.3473C268.203 22.2547 268.229 22.1638 268.278 22.0836Z" fill="white"/>
</svg>
