<svg width="668" height="100" viewBox="0 0 668 100" fill="none" xmlns="http://www.w3.org/2000/svg">
<g>
<path d="M151.004 98.1834C139.118 99.7177 127.124 100.282 115.145 99.8694C45.3776 97.9939 0 75.147 0 54.7061C0 38.2624 22.6697 24.9255 41.8414 20C30.5831 27.1041 14.6225 33.4316 14.8901 50.633C15.1195 66.1864 47.8242 91.8181 118.108 96.7247C138.102 98.1076 143.148 98.1834 151.004 98.1834Z" fill="#093C71"/>
<path d="M38.4185 52.8861C38.4185 69.138 59.9606 83.5464 93.1818 92.5C51.3782 84.1484 23.0312 67.9341 23.0312 49.237C23.0313 22.0942 83.3378 -0.948077 157.655 0.0300424C183.613 0.368622 193.247 2.68225 197.07 3.43465C190.59 3.43465 196.439 3.66037 173.023 3.62275C102.223 3.5287 38.4185 25.7057 38.4185 52.8861Z" fill="#0971CE"/>
<path d="M299.448 35.7685C297.098 34.094 294.632 32.5839 292.068 31.2493C269.352 19.3558 230.784 13.513 187.366 13.513C117.628 13.513 57.3025 36.3358 57.3025 61.2007C57.4975 67.2561 59.8922 73.0408 64.05 77.5C62.7115 76.6095 61.431 75.637 60.2162 74.5881C57.5025 72.2678 55.3009 69.4224 53.7478 66.2284C52.1947 63.0343 51.3233 59.5596 51.1875 56.0197C51.1875 31.1359 111.59 7.5 181.404 7.5C224.822 7.5 263.237 14.1559 285.876 26.0494C290.882 28.5787 295.46 31.8572 299.448 35.7685Z" fill="#00AEEF"/>
<path d="M160.759 32.5H99.3171C98.7484 32.498 98.189 32.64 97.695 32.9118C97.201 33.1835 96.7896 33.5755 96.502 34.0486L71.9404 74.5668C71.7611 74.8625 71.6658 75.1985 71.6641 75.541C71.6623 75.8835 71.7542 76.2204 71.9304 76.5178C72.1066 76.8152 72.361 77.0625 72.6679 77.2349C72.9748 77.4074 73.3234 77.4988 73.6786 77.5H143.207C144.036 77.5019 144.854 77.3108 145.591 76.9429C146.328 76.575 146.962 76.0411 147.439 75.3866L157.15 62.2328C157.589 61.6228 157.824 60.8982 157.824 60.1559C157.824 59.4135 157.589 58.6889 157.15 58.0789L155.96 56.3846C155.864 56.2433 155.807 56.08 155.797 55.9112C155.787 55.7423 155.823 55.5739 155.901 55.4226C155.98 55.2713 156.098 55.1426 156.244 55.0492C156.39 54.9559 156.559 54.9012 156.734 54.8907L159.663 54.6903C160.135 54.6644 160.593 54.5282 160.998 54.2933C161.403 54.0584 161.742 53.7319 161.987 53.3421L167.655 44.5972C168.479 43.3507 168.919 41.9035 168.921 40.4251C168.921 38.3327 168.063 36.3251 166.534 34.8405C165.005 33.3558 162.929 32.5145 160.759 32.5ZM134.988 62.0506L132.589 65.8583C132.421 66.1039 132.194 66.3067 131.928 66.4495C131.661 66.5922 131.363 66.6707 131.058 66.6781H98.9392C98.7711 66.6791 98.6057 66.6367 98.4602 66.5555C98.3147 66.4742 98.1943 66.3569 98.1115 66.2158C98.0287 66.0747 97.9865 65.9148 97.9891 65.7526C97.9918 65.5905 98.0394 65.432 98.1268 65.2935L100.432 61.6498C100.601 61.3812 100.84 61.1595 101.125 61.0063C101.41 60.853 101.731 60.7735 102.057 60.7753H134.176C134.332 60.7742 134.485 60.812 134.622 60.885C134.758 60.9581 134.873 61.0638 134.955 61.192C135.036 61.3203 135.082 61.4667 135.088 61.6171C135.094 61.7675 135.06 61.9168 134.988 62.0506ZM144.643 45.6539L142.224 49.4615C142.057 49.7071 141.83 49.9099 141.563 50.0527C141.297 50.1955 140.999 50.2739 140.694 50.2814H108.669C108.5 50.2856 108.332 50.2457 108.184 50.1658C108.035 50.0859 107.912 49.9689 107.827 49.8272C107.742 49.6855 107.698 49.5243 107.7 49.3605C107.702 49.1968 107.75 49.0366 107.838 48.8968L110.162 45.253C110.33 44.9871 110.566 44.7671 110.847 44.614C111.128 44.4609 111.445 44.3799 111.768 44.3786H143.887C144.033 44.3891 144.174 44.4336 144.299 44.5082C144.423 44.5829 144.527 44.6855 144.601 44.8072C144.675 44.929 144.718 45.0663 144.725 45.2074C144.732 45.3485 144.704 45.4892 144.643 45.6174V45.6539Z" fill="#0971CE"/>
<path d="M181.26 34.6889L159.587 68.3796C159.01 69.2905 158.697 70.3301 158.68 71.3928C158.664 72.4554 158.945 73.5033 159.494 74.4297C160.044 75.3562 160.842 76.1283 161.808 76.6676C162.775 77.2069 163.874 77.4941 164.996 77.5H230.629C230.894 77.5002 231.153 77.4325 231.38 77.304C231.607 77.1755 231.793 76.9911 231.919 76.7704L237.019 67.8324C237.077 67.7374 237.107 67.6295 237.107 67.5197C237.106 67.41 237.075 67.3024 237.017 67.2078C236.958 67.1132 236.874 67.0351 236.773 66.9814C236.672 66.9277 236.558 66.9003 236.442 66.9021L183.897 66.7562C183.758 66.7555 183.621 66.72 183.501 66.6532C183.381 66.5864 183.282 66.4908 183.214 66.376C183.145 66.2612 183.11 66.1312 183.112 65.9994C183.113 65.8676 183.152 65.7385 183.223 65.6253L186.514 60.4266C186.644 60.2215 186.827 60.0515 187.046 59.9332C187.265 59.815 187.513 59.7525 187.765 59.7517H240.464C240.679 59.7486 240.889 59.6933 241.074 59.591C241.26 59.4888 241.414 59.3432 241.523 59.168L247.066 50.0476C247.129 49.9368 247.161 49.8123 247.159 49.6863C247.156 49.5603 247.119 49.4372 247.051 49.3288C246.983 49.2204 246.887 49.1306 246.771 49.0679C246.656 49.0053 246.526 48.9721 246.393 48.9714L194.309 49.1174C194.182 49.1169 194.057 49.084 193.947 49.022C193.837 48.96 193.747 48.8712 193.686 48.7649C193.625 48.6586 193.596 48.5388 193.6 48.4178C193.605 48.2969 193.644 48.1794 193.713 48.0776L196.619 43.8275C196.718 43.69 196.849 43.5768 197.003 43.4975C197.157 43.4182 197.329 43.375 197.505 43.3715H249.472C249.977 43.374 250.472 43.2442 250.904 42.9963C251.335 42.7484 251.686 42.3921 251.917 41.967L255.766 35.072C255.895 34.8014 255.952 34.5051 255.933 34.2089C255.913 33.9126 255.818 33.6253 255.655 33.3719C255.492 33.1184 255.266 32.9066 254.997 32.7546C254.728 32.6027 254.424 32.5153 254.111 32.5H185.417C184.585 32.4976 183.765 32.6975 183.037 33.0808C182.31 33.464 181.698 34.0177 181.26 34.6889Z" fill="#0971CE"/>
<path d="M434.747 34.6889L412.971 68.3796C412.392 69.2918 412.079 70.3331 412.063 71.3973C412.048 72.4615 412.33 73.5106 412.883 74.4376C413.435 75.3647 414.237 76.1365 415.207 76.6745C416.178 77.2124 417.281 77.4973 418.405 77.5H484.117C484.379 77.4989 484.635 77.4304 484.859 77.3019C485.083 77.1734 485.266 76.9897 485.389 76.7704L490.514 67.8324C490.567 67.7352 490.593 67.6269 490.589 67.5177C490.584 67.4086 490.551 67.3023 490.491 67.2089C490.431 67.1156 490.347 67.0384 490.246 66.9846C490.146 66.9309 490.032 66.9025 489.917 66.9021L437.309 66.7562C437.17 66.7555 437.034 66.72 436.913 66.6532C436.793 66.5864 436.694 66.4908 436.626 66.376C436.557 66.2612 436.522 66.1312 436.524 65.9994C436.525 65.8676 436.564 65.7385 436.635 65.6253L439.949 60.4266C440.074 60.2217 440.254 60.0514 440.471 59.933C440.687 59.8145 440.933 59.752 441.183 59.7517H493.944C494.159 59.7486 494.369 59.6932 494.555 59.591C494.741 59.4888 494.895 59.3431 495.004 59.168L500.554 50.0476C500.617 49.9368 500.649 49.8123 500.647 49.6863C500.644 49.5603 500.607 49.4372 500.539 49.3288C500.471 49.2204 500.374 49.1305 500.259 49.0679C500.143 49.0053 500.013 48.972 499.88 48.9714L447.735 49.1173C447.607 49.1169 447.481 49.084 447.372 49.022C447.262 48.96 447.172 48.8712 447.111 48.7649C447.05 48.6586 447.02 48.5387 447.025 48.4178C447.029 48.2969 447.068 48.1794 447.137 48.0776L450.047 43.8275C450.147 43.6911 450.279 43.5787 450.433 43.4995C450.587 43.4202 450.758 43.3764 450.933 43.3715H502.963C503.465 43.3707 503.957 43.2392 504.385 42.9915C504.813 42.7438 505.161 42.3893 505.391 41.967L509.149 35.0719C509.278 34.8014 509.335 34.5051 509.315 34.2088C509.296 33.9126 509.201 33.6253 509.037 33.3718C508.874 33.1184 508.648 32.9065 508.378 32.7546C508.109 32.6027 507.805 32.5153 507.491 32.5H438.832C438.011 32.5099 437.207 32.7157 436.493 33.0984C435.778 33.481 435.178 34.0281 434.747 34.6889Z" fill="#0971CE"/>
<path d="M238.141 76.0412L263.327 33.594C263.527 33.2785 263.808 33.0161 264.143 32.8312C264.478 32.6464 264.857 32.545 265.244 32.5365H275.652C275.971 32.5379 276.287 32.6036 276.577 32.7293C276.868 32.855 277.128 33.0379 277.339 33.2658L303.483 61.4545C303.623 61.6054 303.799 61.7222 303.996 61.7951C304.193 61.868 304.406 61.8948 304.616 61.8734C304.826 61.852 305.028 61.7829 305.204 61.6719C305.381 61.561 305.527 61.4114 305.63 61.2358L321.443 33.594C321.628 33.2631 321.904 32.9864 322.242 32.7936C322.579 32.6009 322.966 32.4994 323.36 32.5H341.55C341.795 32.4984 342.037 32.5583 342.25 32.6737C342.464 32.789 342.641 32.9557 342.766 33.1571C342.89 33.3585 342.956 33.5874 342.958 33.8209C342.96 34.0544 342.897 34.2843 342.776 34.4875L316.996 76.5335C316.832 76.8274 316.586 77.0728 316.285 77.2432C315.984 77.4135 315.64 77.5023 315.29 77.4999H296.372C296.087 77.503 295.805 77.4457 295.547 77.3322C295.288 77.2186 295.059 77.0517 294.877 76.8435L273.429 53.6507C273.318 53.5347 273.18 53.4451 273.025 53.389C272.871 53.333 272.706 53.3121 272.542 53.3281C272.378 53.3441 272.22 53.3964 272.081 53.4809C271.942 53.5655 271.826 53.6798 271.742 53.8148L258.075 76.7158C257.94 76.9465 257.743 77.1389 257.504 77.2734C257.265 77.4079 256.992 77.4798 256.715 77.4816H239.023C238.848 77.4759 238.678 77.4281 238.527 77.3427C238.377 77.2572 238.252 77.137 238.164 76.9931C238.076 76.8492 238.028 76.6864 238.024 76.5199C238.02 76.3535 238.06 76.1887 238.141 76.0412Z" fill="#0971CE"/>
<path d="M322.615 76.0409L347.783 33.594C347.985 33.2796 348.266 33.0181 348.601 32.8334C348.935 32.6487 349.313 32.5466 349.7 32.5365H360.128C360.444 32.5393 360.757 32.6058 361.044 32.7315C361.331 32.8571 361.588 33.0393 361.796 33.2658L387.98 61.3632C388.12 61.5141 388.296 61.6309 388.493 61.7038C388.69 61.7766 388.903 61.8035 389.113 61.782C389.323 61.7606 389.525 61.6915 389.701 61.5806C389.878 61.4696 390.024 61.3201 390.127 61.1444L405.903 33.594C406.087 33.2631 406.363 32.9864 406.701 32.7936C407.039 32.6009 407.426 32.4994 407.819 32.5H426.01C426.256 32.4984 426.498 32.5583 426.711 32.6737C426.924 32.789 427.102 32.9557 427.227 33.1571C427.351 33.3585 427.417 33.5874 427.419 33.8209C427.421 34.0544 427.358 34.2843 427.237 34.4875L401.455 76.5332C401.291 76.8271 401.045 77.0725 400.744 77.2429C400.444 77.4132 400.1 77.502 399.749 77.4996H380.849C380.561 77.5055 380.276 77.4495 380.013 77.3358C379.751 77.2222 379.519 77.0538 379.335 76.8432L357.885 53.6505C357.776 53.5346 357.64 53.4449 357.487 53.3888C357.335 53.3327 357.17 53.3117 357.007 53.3278C356.845 53.3438 356.688 53.3962 356.551 53.4809C356.414 53.5655 356.3 53.6799 356.218 53.8146L342.531 76.7156C342.399 76.9488 342.202 77.1433 341.963 77.2782C341.723 77.4131 341.449 77.4833 341.17 77.4813H323.478C323.302 77.4776 323.131 77.4308 322.98 77.3453C322.829 77.2598 322.704 77.1386 322.618 76.9935C322.531 76.8485 322.485 76.6845 322.484 76.5175C322.484 76.3506 322.529 76.1864 322.615 76.0409Z" fill="#0971CE"/>
<path d="M512.017 42.4714L517.361 33.3734C517.526 33.113 517.757 32.8965 518.032 32.7439C518.307 32.5913 518.617 32.5074 518.934 32.5H667.415C667.517 32.5039 667.617 32.5327 667.705 32.5837C667.793 32.6347 667.866 32.7063 667.917 32.7918C667.968 32.8772 667.996 32.9738 667.998 33.0723C667.999 33.1709 667.975 33.2682 667.927 33.3552L662.241 43.454C662.151 43.6049 662.021 43.7311 661.865 43.8203C661.709 43.9095 661.532 43.9588 661.351 43.9635H633.777C633.455 43.9697 633.139 44.0549 632.861 44.2109C632.582 44.367 632.35 44.5887 632.185 44.8551L612.836 76.516C612.64 76.8272 612.361 77.0825 612.028 77.2552C611.695 77.428 611.32 77.5121 610.941 77.4986H591.99C591.803 77.4945 591.62 77.4446 591.459 77.3536C591.297 77.2626 591.163 77.1335 591.068 76.9786C590.973 76.8237 590.921 76.6481 590.916 76.4684C590.912 76.2887 590.955 76.111 591.043 75.9519L608.553 45.4191C608.636 45.2745 608.678 45.1116 608.675 44.9467C608.671 44.7818 608.623 44.6205 608.535 44.4789C608.447 44.3373 608.322 44.2203 608.172 44.1395C608.022 44.0586 607.853 44.0168 607.682 44.018L563.848 44.1636C563.541 44.1626 563.239 44.2394 562.973 44.3864C562.707 44.5334 562.486 44.7453 562.332 45.0006L543.514 76.3886C543.307 76.7246 543.014 77.0034 542.662 77.198C542.31 77.3925 541.911 77.4961 541.505 77.4986H524.051C523.813 77.5012 523.578 77.4429 523.371 77.3298C523.163 77.2166 522.991 77.0526 522.872 76.8545C522.752 76.6564 522.69 76.4314 522.69 76.2025C522.691 75.9735 522.755 75.7489 522.876 75.5516L541.183 45.3645C541.266 45.2266 541.309 45.0702 541.31 44.911C541.31 44.7518 541.267 44.5953 541.184 44.4571C541.102 44.319 540.983 44.204 540.84 44.1238C540.696 44.0435 540.534 44.0008 540.368 43.9998H512.927C512.741 43.9983 512.56 43.95 512.4 43.86C512.24 43.7699 512.107 43.6411 512.015 43.4865C511.923 43.3318 511.875 43.1567 511.875 42.9786C511.875 42.8005 511.924 42.6256 512.017 42.4714Z" fill="#0971CE"/>
</g>
</svg>
