<svg width="10" height="20" viewBox="0 0 10 20" xmlns="http://www.w3.org/2000/svg" fill="none"><path d="M4.023 10.43h2.578c.851 0 1.576.486 1.893 1.27.123.304.416.488.724.488.098 0 .197-.018.293-.057.4-.162.593-.617.431-1.017-.552-1.364-1.864-2.246-3.341-2.246h-2.578c-1.142 0-2.07-.929-2.07-2.07v-.781c0-1.142.929-2.07 2.07-2.07h2.5c.862 0 1.562.701 1.562 1.563 0 .431.35.781.781.781.431 0 .781-.35.781-.781 0-1.723-1.402-3.125-3.125-3.125h-.625v-1.602c0-.431-.35-.781-.781-.781-.431 0-.781.35-.781.781v1.602h-.313c-2.003 0-3.633 1.63-3.633 3.633v.781c0 2.003 1.63 3.633 3.633 3.633zm5.483 3.922c-.401-.159-.855.038-1.014.439-.309.78-1.033 1.264-1.891 1.264h-3.477c-.862 0-1.563-.701-1.563-1.563 0-.431-.35-.781-.781-.781-.431 0-.781.35-.781.781 0 1.723 1.402 3.125 3.125 3.125h1.211v1.602c0 .431.35.781.781.781.431 0 .781-.35.781-.781v-1.602h.703c.743 0 1.449-.214 2.043-.619.586-.399 1.035-.963 1.3-1.633.159-.401-.038-.855-.439-1.014z" fill="#fff"/></svg>