<svg xmlns:sketch="http://www.bohemiancoding.com/sketch/ns" xmlns="http://www.w3.org/2000/svg" width="56" height="64" viewBox="0 0 56 64"><title>Document-error</title><desc>Created with Sketch.</desc><g sketch:type="MSLayerGroup" stroke="#6B6C6E" stroke-width="2" fill="none"><path sketch:type="MSShapeGroup" d="M48 58v3c0 1.1-.9 2-2 2h-43c-1.1 0-2-.9-2-2v-58c0-1.1.9-2 2-2h25.9l19.1 18.1v26.5"/><path sketch:type="MSShapeGroup" d="M48 19.9h-17c-1.1 0-2-.9-2-2v-15.9"/><path sketch:type="MSShapeGroup" d="M10 18h13"/><path sketch:type="MSShapeGroup" d="M10 28h31"/><path sketch:type="MSShapeGroup" d="M10 35h31"/><path sketch:type="MSShapeGroup" d="M10 44h26"/><path sketch:type="MSShapeGroup" d="M10 50h18"/><path sketch:type="MSShapeGroup" d="M42.6 59.8l3.5-3.6 3.4 3.5 4.3-4.2-3.5-3.5 3.5-3.5-4.3-4.3-3.5 3.5-3.5-3.5-4.2 4.3 3.5 3.4-3.6 3.5 4.4 4.4z"/></g></svg>