<svg width="34" height="34" viewBox="0 0 34 34" xmlns="http://www.w3.org/2000/svg" fill="none"><path d="M32.672 23.375c.733 0 1.328-.595 1.328-1.328v-16.734c0-2.929-2.383-5.313-5.313-5.313h-23.375c-2.929 0-5.313 2.383-5.313 5.313v23.375c0 2.929 2.383 5.313 5.313 5.313h23.375c2.929 0 5.313-2.383 5.313-5.313 0-.733-.595-1.328-1.328-1.328-.733 0-1.328.595-1.328 1.328 0 1.465-1.192 2.656-2.656 2.656h-6.973v-11.555h2.988c.733 0 1.328-.595 1.328-1.328 0-.733-.595-1.328-1.328-1.328h-2.988v-3.652c0-1.465 1.192-2.656 2.656-2.656h.664c.733 0 1.328-.595 1.328-1.328 0-.734-.595-1.328-1.328-1.328h-.664c-2.929 0-5.313 2.383-5.313 5.313v3.652h-2.988c-.733 0-1.328.595-1.328 1.328 0 .734.595 1.328 1.328 1.328h2.988v11.555h-13.746c-1.465 0-2.656-1.192-2.656-2.656v-23.375c0-1.465 1.192-2.656 2.656-2.656h23.375c1.465 0 2.656 1.192 2.656 2.656v16.734c0 .733.595 1.328 1.328 1.328z" fill="#FF368A"/></svg>