<svg width="24" height="24" viewBox="0 0 24 24" fill="none" xmlns="http://www.w3.org/2000/svg">
<path d="M21.75 7.875V11.625C21.75 11.8239 21.671 12.0147 21.5303 12.1553C21.3897 12.296 21.1989 12.375 21 12.375C19.4333 12.3791 17.8891 12.0027 16.5 11.2781V14.625C16.5002 15.9805 16.1137 17.3079 15.3859 18.4515C14.6581 19.595 13.6192 20.5072 12.3911 21.081C11.1631 21.6548 9.79681 21.8664 8.45272 21.6909C7.10863 21.5155 5.84248 20.9602 4.80287 20.0904C3.76327 19.2206 2.99336 18.0723 2.5835 16.7802C2.17365 15.4882 2.14086 14.106 2.48899 12.796C2.83712 11.486 3.55171 10.3024 4.5489 9.38428C5.54609 8.46614 6.78449 7.8515 8.11875 7.6125C8.2258 7.59329 8.33575 7.5976 8.44098 7.62512C8.5462 7.65264 8.64418 7.70271 8.72812 7.77188C8.81465 7.84171 8.88411 7.93036 8.93123 8.03109C8.97834 8.13181 9.00186 8.24195 9 8.35312V12.2531C9.0004 12.3951 8.95996 12.5343 8.8835 12.654C8.80704 12.7736 8.69778 12.8688 8.56875 12.9281C8.26608 13.0723 8.00759 13.295 7.82022 13.5729C7.63284 13.8509 7.52342 14.1741 7.50336 14.5087C7.4833 14.8434 7.55334 15.1773 7.70616 15.4757C7.85899 15.7741 8.08903 16.026 8.37231 16.2053C8.65559 16.3846 8.98176 16.4846 9.31685 16.495C9.65193 16.5054 9.98368 16.4258 10.2775 16.2644C10.5714 16.103 10.8166 15.8658 10.9876 15.5775C11.1587 15.2892 11.2493 14.9602 11.25 14.625V2.625C11.25 2.42609 11.329 2.23532 11.4697 2.09467C11.6103 1.95402 11.8011 1.875 12 1.875H15.75C15.9489 1.875 16.1397 1.95402 16.2803 2.09467C16.421 2.23532 16.5 2.42609 16.5 2.625C16.5 3.81847 16.9741 4.96307 17.818 5.80698C18.6619 6.65089 19.8065 7.125 21 7.125C21.1989 7.125 21.3897 7.20402 21.5303 7.34467C21.671 7.48532 21.75 7.67609 21.75 7.875Z" fill="white"/>
</svg>
