<svg width="23" height="11" viewBox="0 0 23 11" fill="none" xmlns="http://www.w3.org/2000/svg">
<path d="M13.7071 10.7071C13.3166 11.0976 12.6834 11.0976 12.2929 10.7071C11.9024 10.3166 11.9024 9.68342 12.2929 9.29289L19.5858 2H1C0.447715 2 0 1.55229 0 1C0 0.447715 0.447715 0 1 0L22 0C22.1356 0 22.2649 0.0269861 22.3828 0.0758791C22.5007 0.124679 22.6112 0.197017 22.7071 0.292893C22.8902 0.475951 22.9874 0.712324 22.9989 0.952029C22.9996 0.96801 23 0.984005 23 1" fill="white"/>
<path d="M23 1.00923C22.9976 1.26207 22.9 1.51419 22.7071 1.70711L13.7071 10.7071" fill="white"/>
</svg>
