<svg width="24" height="24" viewBox="0 0 24 24" fill="none" xmlns="http://www.w3.org/2000/svg">
<path d="M22 5.80216C21.2483 6.12826 20.4534 6.34383 19.64 6.44216C20.4982 5.92948 21.1413 5.12295 21.45 4.17216C20.6436 4.65223 19.7608 4.99046 18.84 5.17216C18.2245 4.50473 17.405 4.06046 16.5098 3.90901C15.6147 3.75757 14.6945 3.90752 13.8938 4.33535C13.093 4.76318 12.4569 5.44469 12.0852 6.273C11.7135 7.1013 11.6273 8.02955 11.84 8.91216C10.2094 8.82969 8.61444 8.40512 7.15865 7.66602C5.70287 6.92693 4.41885 5.88986 3.39 4.62216C3.02914 5.25233 2.83952 5.96599 2.84 6.69216C2.83872 7.36654 3.00422 8.03078 3.32176 8.62573C3.63929 9.22067 4.09902 9.72787 4.66 10.1022C4.00798 10.0844 3.36989 9.90946 2.8 9.59216V9.64216C2.80489 10.5871 3.13599 11.5013 3.73731 12.2301C4.33864 12.959 5.17326 13.4578 6.1 13.6422C5.74326 13.7507 5.37287 13.808 5 13.8122C4.74189 13.8091 4.48442 13.7857 4.23 13.7422C4.49391 14.555 5.00462 15.2653 5.69107 15.7743C6.37753 16.2833 7.20558 16.5657 8.06 16.5822C6.6172 17.7174 4.83588 18.337 3 18.3422C2.66574 18.3433 2.33174 18.3232 2 18.2822C3.87443 19.4924 6.05881 20.1349 8.29 20.1322C9.82969 20.1482 11.3571 19.8572 12.7831 19.2762C14.2091 18.6953 15.505 17.836 16.5952 16.7487C17.6854 15.6613 18.548 14.3676 19.1326 12.9431C19.7172 11.5186 20.012 9.99189 20 8.45216C20 8.28216 20 8.10216 20 7.92216C20.7847 7.33697 21.4615 6.61959 22 5.80216Z" fill="white"/>
</svg>
