<svg width="34" height="34" viewBox="0 0 34 34" xmlns="http://www.w3.org/2000/svg" fill="none"><path d="M17.335 34h-.338c-2.665.006-5.127-.061-7.522-.207-2.196-.134-4.2-.892-5.796-2.194-1.54-1.256-2.592-2.954-3.126-5.047-.465-1.822-.489-3.611-.513-5.341-.017-1.241-.035-2.712-.038-4.208.004-1.502.021-2.973.038-4.214.024-1.73.048-3.518.513-5.341.534-2.093 1.586-3.791 3.126-5.047 1.596-1.302 3.6-2.06 5.796-2.194 2.395-.146 4.858-.213 7.529-.207 2.666-.006 5.127.061 7.522.207 2.196.134 4.2.892 5.796 2.194 1.541 1.256 2.592 2.954 3.126 5.047.465 1.822.489 3.611.513 5.341.017 1.241.035 2.712.038 4.208-.003 1.502-.021 2.973-.038 4.214-.01.734-.616 1.32-1.346 1.31-.734-.01-1.32-.613-1.31-1.346.017-1.234.035-2.695.038-4.178-.003-1.476-.021-2.937-.038-4.171-.021-1.575-.044-3.203-.431-4.72-.39-1.53-1.141-2.756-2.231-3.645-1.179-.962-2.619-1.5-4.279-1.601-2.339-.142-4.746-.208-7.361-.202-2.622-.006-5.029.06-7.367.202-1.66.101-3.1.64-4.279 1.601-1.09.889-1.841 2.115-2.231 3.646-.387 1.517-.409 3.145-.431 4.72-.017 1.234-.035 2.695-.038 4.178.004 1.476.021 2.938.038 4.171.022 1.575.044 3.203.431 4.72.39 1.53 1.141 2.756 2.231 3.645 1.179.962 2.619 1.5 4.279 1.601 2.338.142 4.746.208 7.361.202 2.622.006 5.029-.06 7.367-.202 1.66-.101 3.099-.64 4.279-1.601.785-.64 1.399-1.462 1.823-2.443.292-.673 1.073-.982 1.747-.691.673.292.982 1.073.691 1.747-.595 1.375-1.464 2.534-2.582 3.446-1.596 1.302-3.6 2.06-5.796 2.194-2.293.139-4.649.207-7.19.207zm7.899-17c0-4.577-3.724-8.301-8.301-8.301s-8.301 3.724-8.301 8.301 3.724 8.301 8.301 8.301 8.301-3.724 8.301-8.301zm-2.656 0c0 3.112-2.532 5.645-5.645 5.645-3.112 0-5.645-2.532-5.645-5.645 0-3.112 2.532-5.645 5.645-5.645 3.113 0 5.645 2.532 5.645 5.645zm3.586-10.957c-1.1 0-1.992.892-1.992 1.992s.892 1.992 1.992 1.992 1.992-.892 1.992-1.992-.892-1.992-1.992-1.992z" fill="#FF368A"/></svg>