<svg width="25" height="25" viewBox="0 0 25 25" xmlns="http://www.w3.org/2000/svg" fill="none"><path d="M.856 10.429l8.559-8.58c.381-.382.999-.383 1.381-.002s.383.999.002 1.381l-8.56 8.581c-.381.381-.381 1 .001 1.382l8.559 8.58c.381.382.38 1-.002 1.381-.191.19-.44.285-.69.285-.25 0-.501-.096-.691-.287l-8.558-8.579c-1.142-1.142-1.142-3.001-.001-4.143zM6.298 11.523h17.725c.539 0 .977.437.977.977 0 .539-.437.977-.977.977h-17.725c-.539 0-.977-.437-.977-.977s.437-.977.977-.977z" fill="#135978" fill-opacity=".5"/></svg>