<svg width="24" height="24" viewBox="0 0 24 24" xmlns="http://www.w3.org/2000/svg" fill="none"><path d="M12 3.75c-3.231 0-5.859 2.629-5.859 5.859 0 3.231 2.629 5.859 5.859 5.859.546 0 1.086-.075 1.607-.223.498-.142.787-.66.645-1.158-.142-.498-.66-.787-1.158-.645-.354.101-.722.152-1.094.152-2.197 0-3.984-1.787-3.984-3.984s1.787-3.984 3.984-3.984 3.984 1.787 3.984 3.984c0 .391-.056.777-.167 1.147-.149.496.133 1.018.629 1.167.496.149 1.018-.133 1.167-.629.163-.545.246-1.112.246-1.685 0-3.231-2.629-5.859-5.859-5.859zM18.791 2.811c-1.815-1.813-4.226-2.811-6.791-2.811-2.565 0-4.977.998-6.791 2.811-1.814 1.812-2.815 4.223-2.818 6.789.002 1.868.521 3.621 1.586 5.359.923 1.505 2.121 2.817 3.391 4.207 1.244 1.363 2.531 2.772 3.559 4.398.172.272.471.437.793.437h.563c.322 0 .621-.165.793-.437 1.028-1.626 2.314-3.035 3.559-4.398 1.269-1.39 2.468-2.703 3.391-4.207 1.066-1.738 1.584-3.49 1.586-5.361-.003-2.564-1.004-4.975-2.818-6.787zm-3.543 15.091c-1.106 1.212-2.245 2.459-3.248 3.892-1.003-1.434-2.141-2.681-3.248-3.892-2.406-2.634-4.483-4.91-4.486-8.301.005-4.26 3.474-7.725 7.734-7.725s7.729 3.466 7.734 7.723c-.003 3.394-2.081 5.669-4.487 8.303z" fill="#FF368A"/></svg>