<svg width="20" height="20" viewBox="0 0 20 20" xmlns="http://www.w3.org/2000/svg" fill="none"><path d="M16.875 0h-2.969c-1.723 0-3.125 1.402-3.125 3.125v2.969c0 1.723 1.402 3.125 3.125 3.125h2.969c1.723 0 3.125-1.402 3.125-3.125v-2.969c0-1.723-1.402-3.125-3.125-3.125zm1.563 6.094c0 .862-.701 1.563-1.563 1.563h-2.969c-.861 0-1.562-.701-1.562-1.563v-2.969c0-.862.701-1.563 1.562-1.563h2.969c.862 0 1.563.701 1.563 1.563v2.969zm-12.344-6.094h-2.969c-1.723 0-3.125 1.402-3.125 3.125v2.969c0 1.723 1.402 3.125 3.125 3.125h2.969c1.723 0 3.125-1.402 3.125-3.125v-2.969c0-1.723-1.402-3.125-3.125-3.125zm1.563 6.094c0 .862-.701 1.563-1.563 1.563h-2.969c-.862 0-1.563-.701-1.563-1.563v-2.969c0-.862.701-1.563 1.563-1.563h2.969c.862 0 1.563.701 1.563 1.563v2.969zm-1.563 4.687h-2.969c-1.723 0-3.125 1.402-3.125 3.125v2.969c0 1.723 1.402 3.125 3.125 3.125h2.969c1.723 0 3.125-1.402 3.125-3.125v-2.969c0-1.723-1.402-3.125-3.125-3.125zm1.563 6.094c0 .862-.701 1.563-1.563 1.563h-2.969c-.862 0-1.563-.701-1.563-1.563v-2.969c0-.861.701-1.562 1.563-1.562h2.969c.862 0 1.563.701 1.563 1.562v2.969zm11.562-.781c-.432 0-.781.35-.781.781 0 .862-.701 1.563-1.563 1.563h-2.969c-.861 0-1.562-.701-1.562-1.563v-2.969c0-.861.701-1.562 1.562-1.562h2.969c.621 0 1.184.368 1.433.937.173.395.633.576 1.029.403.395-.173.576-.633.403-1.029-.498-1.138-1.622-1.874-2.864-1.874h-2.969c-1.723 0-3.125 1.402-3.125 3.125v2.969c0 1.723 1.402 3.125 3.125 3.125h2.969c1.723 0 3.125-1.402 3.125-3.125 0-.431-.35-.781-.781-.781z" clip-path="url(#a)" fill="#fff"/><defs><clipPath id="a"><path fill="#fff" d="M0 0h20v20h-20z"/></clipPath></defs></svg>