<svg width="124" height="30" viewBox="0 0 124 30" xmlns="http://www.w3.org/2000/svg" fill="none"><g clip-path="url(#a)"><path d="M46.211 5.001h-6.839c-.226 0-.445.081-.618.228-.172.147-.286.351-.321.574l-2.766 17.537c-.013.081-.008.165.015.244.023.079.062.153.116.215.054.063.12.113.195.147.075.034.156.052.239.052h3.265c.226 0 .446-.081.618-.228.172-.147.286-.351.321-.575l.746-4.73c.035-.224.149-.427.321-.575.172-.147.391-.228.617-.228h2.165c4.505 0 7.105-2.18 7.784-6.5.306-1.89.013-3.375-.872-4.415-.972-1.142-2.696-1.746-4.985-1.746zm.789 6.405c-.374 2.454-2.249 2.454-4.062 2.454h-1.032l.724-4.583c.021-.134.089-.256.193-.344.103-.088.235-.137.37-.137h.473c1.235 0 2.4 0 3.002.704.359.42.469 1.044.332 1.906zm19.654-.079h-3.275c-.136 0-.267.048-.37.137-.103.088-.171.21-.193.344l-.145.916-.229-.332c-.709-1.029-2.29-1.373-3.868-1.373-3.619 0-6.71 2.741-7.312 6.586-.313 1.918.132 3.752 1.22 5.031.998 1.176 2.426 1.666 4.125 1.666 2.916 0 4.533-1.875 4.533-1.875l-.146.91c-.013.081-.008.165.014.244.022.079.061.153.115.216.053.063.12.113.194.148.075.035.156.053.239.053h2.95c.227 0 .446-.081.618-.228.172-.147.286-.351.321-.575l1.77-11.209c.013-.081.008-.164-.014-.243-.022-.079-.061-.153-.115-.215-.053-.063-.12-.113-.194-.147-.075-.034-.156-.052-.238-.052zm-4.565 6.374c-.316 1.871-1.801 3.127-3.695 3.127-.951 0-1.711-.305-2.199-.883-.484-.574-.668-1.391-.514-2.301.295-1.855 1.805-3.152 3.67-3.152.93 0 1.686.309 2.184.892.499.589.697 1.411.554 2.317zm22.007-6.374h-3.291c-.155 0-.308.038-.445.111-.137.073-.254.178-.342.306l-4.539 6.686-1.924-6.425c-.059-.196-.18-.368-.344-.49-.164-.122-.363-.188-.568-.188h-3.234c-.091 0-.18.021-.261.063-.081.041-.151.101-.204.175-.053.074-.088.159-.101.249-.013.09-.005.182.024.267l3.625 10.638-3.408 4.811c-.061.085-.096.186-.104.29-.007.104.014.209.062.302s.121.171.21.225c.089.054.192.083.297.083h3.287c.153 0 .305-.037.441-.108.136-.071.253-.174.34-.3l10.946-15.8c.059-.085.094-.186.101-.289.007-.104-.016-.208-.064-.3s-.121-.169-.21-.223c-.089-.054-.191-.082-.295-.082zM94.992 5.001h-6.84c-.226 0-.445.081-.617.228-.172.147-.286.351-.321.574l-2.766 17.537c-.013.081-.008.164.014.244.022.079.061.152.115.215.054.063.12.113.195.147.075.035.156.052.238.052h3.51c.158 0 .311-.057.432-.16.12-.103.2-.246.224-.402l.785-4.971c.035-.224.149-.427.321-.575.172-.147.391-.228.617-.228h2.164c4.506 0 7.105-2.18 7.785-6.5.307-1.89.012-3.375-.873-4.415-.971-1.142-2.694-1.746-4.983-1.746zm.789 6.405c-.373 2.454-2.248 2.454-4.062 2.454h-1.031l.725-4.583c.021-.134.089-.256.192-.345.103-.088.234-.137.37-.136h.473c1.234 0 2.4 0 3.002.704.359.42.468 1.044.331 1.906zm19.653-.079h-3.273c-.135 0-.267.048-.37.136-.103.088-.171.211-.192.345l-.145.916-.23-.332c-.709-1.029-2.289-1.373-3.867-1.373-3.619 0-6.709 2.741-7.311 6.586-.312 1.918.131 3.752 1.219 5.031 1 1.176 2.426 1.666 4.125 1.666 2.916 0 4.533-1.875 4.533-1.875l-.146.91c-.013.082-.008.165.015.244.022.08.061.153.115.216.054.063.12.113.195.148.075.034.157.052.239.052h2.949c.227 0 .446-.081.618-.228.172-.147.285-.351.32-.575l1.771-11.209c.013-.081.008-.165-.015-.244-.023-.079-.062-.153-.116-.215-.053-.063-.12-.113-.195-.147-.075-.034-.156-.052-.239-.052zm-4.565 6.374c-.314 1.871-1.801 3.127-3.695 3.127-.949 0-1.711-.305-2.199-.883-.484-.574-.666-1.391-.514-2.301.297-1.855 1.805-3.152 3.67-3.152.93 0 1.686.309 2.184.892.501.589.699 1.411.554 2.317zm8.426-12.219l-2.807 17.858c-.012.081-.008.164.015.244.022.079.061.152.115.215.053.063.119.113.194.147.075.035.156.052.238.052h2.822c.469 0 .867-.34.939-.803l2.768-17.536c.013-.081.008-.164-.014-.244-.022-.079-.061-.153-.115-.215-.053-.063-.12-.113-.194-.147-.075-.035-.156-.053-.239-.053h-3.16c-.135 0-.266.049-.369.138-.103.088-.171.21-.193.344z" fill="#fff"/><path d="M23.047 7.667l-.096.55c-1.237 6.351-5.469 8.545-10.874 8.545h-2.752c-.661 0-1.218.48-1.321 1.132l-1.409 8.936-.399 2.533c-.016.101-.01.203.018.301.028.098.076.189.142.266.066.077.148.14.24.182.092.043.193.065.295.065h4.881c.578 0 1.069-.42 1.16-.99l.048-.248.919-5.832.059-.32c.09-.572.582-.992 1.16-.992h.73c4.729 0 8.431-1.92 9.513-7.476.452-2.321.218-4.259-.978-5.622-.379-.422-.832-.771-1.336-1.03z" fill="#fff" fill-opacity=".5"/><path d="M21.755 7.151c-.395-.114-.797-.203-1.203-.267-.803-.123-1.614-.183-2.426-.177h-7.352c-.28 0-.55.1-.763.282-.213.182-.353.434-.396.71l-1.564 9.906-.045.289c.049-.315.209-.603.451-.811.242-.208.551-.322.87-.322h2.752c5.405 0 9.637-2.195 10.874-8.545l.096-.55c-.326-.171-.667-.315-1.017-.429l-.277-.087z" fill="#FFCCE2"/><path d="M9.614 7.699c.043-.277.183-.529.396-.71.213-.182.483-.281.763-.28h7.352c.871 0 1.684.057 2.426.177.502.079.997.197 1.481.353.365.121.704.264 1.017.429.368-2.347-.003-3.945-1.272-5.392-1.399-1.593-3.924-2.275-7.155-2.275h-9.38c-.66 0-1.223.48-1.325 1.133l-3.907 24.765c-.018.115-.011.233.02.345.032.112.087.216.163.305.076.088.169.16.275.209.106.049.221.074.337.074h5.791l1.454-9.225 1.564-9.906z" fill="#fff"/></g><defs><clipPath id="a"><path fill="#fff" d="M0 0h124v30h-124z"/></clipPath></defs></svg>