<svg width="34" height="34" viewBox="0 0 34 34" xmlns="http://www.w3.org/2000/svg" fill="none"><path d="M33.997 27.396c-.047-1.315-.595-2.543-1.543-3.456-1.855-1.789-3.409-2.821-4.891-3.249-2.042-.59-3.933-.053-5.621 1.595l-.008.008-1.796 1.782c-1.122-.633-3.304-2.021-5.662-4.379l-.175-.175c-2.358-2.358-3.747-4.54-4.379-5.661l1.782-1.796.008-.008c1.648-1.688 2.185-3.579 1.595-5.621-.428-1.482-1.461-3.036-3.249-4.891-.913-.947-2.141-1.495-3.456-1.542-1.316-.047-2.579.411-3.558 1.29l-.038.034-.052.049c-1.95 1.95-2.972 4.679-2.956 7.893.027 5.46 3.028 11.704 8.027 16.703.943.943 2.014 1.875 3.184 2.773.582.446 1.416.336 1.862-.246.446-.582.336-1.416-.246-1.862-1.078-.827-2.061-1.682-2.922-2.543-4.515-4.515-7.225-10.062-7.249-14.838-.012-2.475.732-4.541 2.154-5.978l.01-.009c.965-.867 2.427-.814 3.327.12 3.438 3.566 3.189 5.249 1.67 6.807l-2.462 2.48c-.386.389-.494.975-.271 1.476.062.14 1.574 3.481 5.34 7.247l.175.175c3.765 3.765 7.106 5.277 7.247 5.34.501.223 1.087.115 1.476-.271l2.48-2.462c1.558-1.519 3.242-1.768 6.807 1.67.934.901.987 2.362.12 3.327l-.009.01c-1.424 1.41-3.468 2.154-5.917 2.154h-.061c-1.957-.01-4.223-.546-6.554-1.551-.673-.291-1.455.02-1.745.694-.291.673.02 1.455.694 1.745 2.694 1.162 5.248 1.757 7.592 1.769h.075c3.182 0 5.884-1.021 7.819-2.956l.049-.052.034-.038c.879-.979 1.337-2.243 1.29-3.558z" fill="#FF368A"/></svg>