<svg width="18" height="20" viewBox="0 0 18 20" xmlns="http://www.w3.org/2000/svg" fill="none"><path d="M16.338 7.692l-11.813-7.281c-.855-.526-1.888-.548-2.764-.059-.876.489-1.399 1.381-1.399 2.384v14.497c0 1.517 1.223 2.759 2.725 2.767h.012c.47 0 .959-.147 1.416-.426.368-.224.484-.704.26-1.072-.224-.368-.704-.484-1.072-.26-.214.13-.423.198-.608.198-.567-.003-1.174-.489-1.174-1.207v-14.497c0-.431.224-.813.6-1.023.376-.21.819-.201 1.185.025l11.813 7.281c.355.219.558.583.557 1-.001.417-.206.781-.563.998l-8.541 5.229c-.367.225-.483.705-.258 1.072.225.367.705.483 1.072.258l8.54-5.229c.818-.499 1.307-1.368 1.309-2.326.002-.958-.484-1.829-1.299-2.331z" fill="#fff"/></svg>