<svg width="120" height="120" viewBox="0 0 120 120" xmlns="http://www.w3.org/2000/svg" fill="none"><path d="M104.3 74.4c-.9 0-1.7-.4-2.3-1-.6-.6-1-1.5-1-2.3 0-.9.4-1.7 1-2.3 1.2-1.2 3.4-1.2 4.7 0 .6.6 1 1.5 1 2.3 0 .9-.4 1.7-1 2.3-.7.7-1.6 1-2.4 1zm0-4.6c-.3 0-.7.1-.9.4-.2.2-.4.6-.4.9 0 .3.1.7.4.9.5.5 1.4.5 1.8 0 .2-.2.4-.6.4-.9 0-.3-.1-.7-.4-.9-.3-.3-.6-.4-.9-.4zM95 120h-70c-6.9 0-12.5-5.6-12.5-12.5v-85.8c0-6.9 5.6-12.5 12.5-12.5h17c1.7-1.2 3.6-1.8 5.7-1.8h2c1.5-4.4 5.6-7.4 10.3-7.4 4.7 0 8.8 3 10.2 7.4h2c2.1 0 4 .6 5.7 1.8h17.1c6.9 0 12.5 5.6 12.5 12.5v37.8c0 1.8-1.5 3.3-3.3 3.3-1.8 0-3.3-1.5-3.3-3.3v-37.8c0-3.3-2.7-5.9-5.9-5.9h-13.1c.1.4.1.8.1 1.3v3.2h5.7c4.4 0 7.9 3.6 7.9 7.9v71.5c0 4.4-3.6 7.9-7.9 7.9h-55.4c-4.4 0-7.9-3.6-7.9-7.9v-71.5c0-4.4 3.6-7.9 7.9-7.9h5.7v-3.2c0-.4 0-.8.1-1.3h-13.1c-3.3 0-5.9 2.7-5.9 5.9v85.8c0 3.3 2.7 5.9 5.9 5.9h70c3.3 0 5.9-2.7 5.9-5.9v-25.7c0-1.8 1.5-3.3 3.3-3.3 1.8 0 3.3 1.5 3.3 3.3v25.7c.1 6.9-5.6 12.5-12.5 12.5zm-70-108.8c-5.8 0-10.5 4.7-10.5 10.5v85.8c0 5.8 4.7 10.5 10.5 10.5h70c5.8 0 10.5-4.7 10.5-10.5v-25.7c0-.7-.6-1.3-1.3-1.3-.7 0-1.2.5-1.2 1.3v25.7c0 4.4-3.6 7.9-7.9 7.9h-70.1c-4.4 0-7.9-3.6-7.9-7.9v-85.8c0-4.4 3.6-7.9 7.9-7.9h15.6l-.3 1.3c-.2.7-.3 1.3-.3 2v5.2h-7.7c-3.3 0-5.9 2.7-5.9 5.9v71.5c0 3.3 2.7 5.9 5.9 5.9h55.3c3.3 0 5.9-2.7 5.9-5.9v-71.5c0-3.3-2.7-5.9-5.9-5.9h-7.6v-5.2c0-.7-.1-1.4-.3-2l-.3-1.3h15.6c4.4 0 7.9 3.6 7.9 7.9v37.8c0 .7.6 1.3 1.3 1.3.7 0 1.3-.6 1.3-1.3v-37.8c0-5.8-4.7-10.5-10.5-10.5h-17.7l-.3-.2c-1.4-1.1-3-1.6-4.7-1.6h-3.5l-.2-.7c-1.1-4-4.6-6.7-8.6-6.7s-7.5 2.7-8.5 6.6l-.2.7h-3.5c-1.8.1-3.5.6-4.8 1.7l-.3.2h-17.7zm62.7 91.8h-55.4c-1.8 0-3.3-1.5-3.3-3.3v-71.5c0-1.8 1.5-3.3 3.3-3.3h55.3c1.8 0 3.3 1.5 3.3 3.3v71.5c.1 1.8-1.4 3.3-3.2 3.3zm-55.4-76.1c-.7 0-1.3.6-1.3 1.3v71.5c0 .7.6 1.3 1.3 1.3h55.3c.7 0 1.3-.6 1.3-1.3v-71.5c0-.7-.6-1.3-1.3-1.3h-55.3zm45.1-4.6h-34.8v-5.2c0-2.8 2.3-5.1 5.1-5.1h4.8c.7 0 1.3-.6 1.3-1.3.1-3.4 2.8-6.1 6.2-6.1 3.4 0 6.1 2.7 6.2 6.1 0 .7.6 1.3 1.3 1.3h4.8c2.8 0 5.1 2.3 5.1 5.1v5.2zm-32.8-2h30.8v-3.2c0-1.7-1.4-3.1-3.1-3.1h-4.8c-1.8 0-3.3-1.5-3.3-3.2 0-2.3-1.9-4.1-4.2-4.1-2.3 0-4.2 1.9-4.2 4.1 0 1.8-1.5 3.2-3.3 3.2h-4.8c-1.7 0-3.1 1.4-3.1 3.1v3.2zM60 39.8c-.9 0-1.7-.4-2.3-1-.6-.6-1-1.5-1-2.3 0-.9.4-1.7 1-2.3 1.2-1.2 3.4-1.2 4.7 0 .6.6 1 1.5 1 2.3 0 .9-.4 1.7-1 2.3-.7.7-1.5 1-2.4 1zm0-4.6c-.3 0-.7.1-.9.4-.2.2-.4.6-.4.9 0 .3.1.7.4.9.5.5 1.4.5 1.8 0 .2-.2.4-.6.4-.9 0-.3-.1-.7-.4-.9-.2-.3-.6-.4-.9-.4zM82.1 57.3h-44.2c-1.8 0-3.3-1.5-3.3-3.3v-17.5c0-1.8 1.5-3.3 3.3-3.3h11.9c1.8 0 3.3 1.5 3.3 3.3 0 1.8-1.5 3.3-3.3 3.3h-8.6v10.9h37.6v-10.9h-8.9c-1.8 0-3.3-1.5-3.3-3.3 0-1.8 1.5-3.3 3.3-3.3h12.2c1.8 0 3.3 1.5 3.3 3.3v17.5c0 1.8-1.4 3.3-3.3 3.3zm-44.2-22.1c-.7 0-1.3.6-1.3 1.3v17.5c0 .7.6 1.3 1.3 1.3h44.3c.7 0 1.3-.6 1.3-1.3v-17.5c0-.7-.6-1.3-1.3-1.3h-12.3c-.7 0-1.3.6-1.3 1.3 0 .7.6 1.3 1.3 1.3h10.9v14.9h-41.6v-14.9h10.6c.7 0 1.3-.6 1.3-1.3 0-.7-.6-1.3-1.3-1.3h-11.9zM82.1 81.3h-16.6c-1.8 0-3.3-1.5-3.3-3.3 0-1.8 1.5-3.3 3.3-3.3h16.6c1.8 0 3.3 1.5 3.3 3.3 0 1.8-1.4 3.3-3.3 3.3zm-16.6-4.6c-.7 0-1.3.6-1.3 1.3 0 .7.6 1.3 1.3 1.3h16.6c.7 0 1.3-.6 1.3-1.3 0-.7-.6-1.3-1.3-1.3h-16.6zM82.1 68.4h-16.6c-1.8 0-3.3-1.5-3.3-3.3 0-1.8 1.5-3.3 3.3-3.3h16.6c1.8 0 3.3 1.5 3.3 3.3 0 1.8-1.4 3.3-3.3 3.3zm-16.6-4.6c-.7 0-1.3.6-1.3 1.3 0 .7.6 1.3 1.3 1.3h16.6c.7 0 1.3-.6 1.3-1.3 0-.7-.6-1.3-1.3-1.3h-16.6zM82.1 94.2h-16.6c-1.8 0-3.3-1.5-3.3-3.3 0-1.8 1.5-3.3 3.3-3.3h16.6c1.8 0 3.3 1.5 3.3 3.3 0 1.8-1.4 3.3-3.3 3.3zm-16.6-4.6c-.7 0-1.3.6-1.3 1.3 0 .7.6 1.3 1.3 1.3h16.6c.7 0 1.3-.6 1.3-1.3 0-.7-.6-1.3-1.3-1.3h-16.6zM54.5 81.3h-16.6c-1.8 0-3.3-1.5-3.3-3.3 0-1.8 1.5-3.3 3.3-3.3h16.6c1.8 0 3.3 1.5 3.3 3.3 0 1.8-1.5 3.3-3.3 3.3zm-16.6-4.6c-.7 0-1.3.6-1.3 1.3 0 .7.6 1.3 1.3 1.3h16.6c.7 0 1.3-.6 1.3-1.3 0-.7-.6-1.3-1.3-1.3h-16.6zM54.5 68.4h-16.6c-1.8 0-3.3-1.5-3.3-3.3 0-1.8 1.5-3.3 3.3-3.3h16.6c1.8 0 3.3 1.5 3.3 3.3 0 1.8-1.5 3.3-3.3 3.3zm-16.6-4.6c-.7 0-1.3.6-1.3 1.3 0 .7.6 1.3 1.3 1.3h16.6c.7 0 1.3-.6 1.3-1.3 0-.7-.6-1.3-1.3-1.3h-16.6zM54.5 94.2h-16.6c-1.8 0-3.3-1.5-3.3-3.3 0-1.8 1.5-3.3 3.3-3.3h16.6c1.8 0 3.3 1.5 3.3 3.3 0 1.8-1.5 3.3-3.3 3.3zm-16.6-4.6c-.7 0-1.3.6-1.3 1.3 0 .7.6 1.3 1.3 1.3h16.6c.7 0 1.3-.6 1.3-1.3 0-.7-.6-1.3-1.3-1.3h-16.6z" fill="#FAB7D8"/></svg>