<svg width="25" height="25" viewBox="0 0 25 25" fill="none" xmlns="http://www.w3.org/2000/svg">
<path d="M24.1443 10.4292L15.585 1.8489C15.2041 1.46701 14.5858 1.46633 14.2039 1.84719C13.822 2.2281 13.8213 2.84645 14.2022 3.22829L22.7623 11.8095C23.143 12.1903 23.143 12.8099 22.7614 13.1915L14.2022 21.7718C13.8213 22.1537 13.822 22.772 14.2039 23.1529C14.3945 23.3431 14.6441 23.4381 14.8936 23.4381C15.1439 23.4381 15.3943 23.3424 15.5851 23.1512L24.1434 14.5717C25.2857 13.4294 25.2857 11.5707 24.1443 10.4292Z" fill="#135978" fill-opacity="0.5"/>
<path d="M18.7021 11.5234H0.976611C0.437207 11.5234 0 11.9607 0 12.5001C0 13.0394 0.437207 13.4767 0.976611 13.4767H18.7021C19.2415 13.4767 19.6787 13.0395 19.6787 12.5001C19.6787 11.9606 19.2415 11.5234 18.7021 11.5234Z" fill="#135978" fill-opacity="0.5"/>
</svg>
