<svg width="16" height="16" viewBox="0 0 16 16" xmlns="http://www.w3.org/2000/svg" fill="none"><path fill-rule="evenodd" clip-rule="evenodd" d="M4.527 15.515c-.224.156-.479.234-.734.234h-.004c-.262-.001-.524-.083-.751-.248-.449-.326-.635-.88-.475-1.411l1.184-3.919c.025-.084-.004-.176-.073-.229l-3.174-2.449c-.298-.23-.472-.562-.498-.916-.012-.17.009-.346.068-.518.18-.529.656-.87 1.212-.87h3.962c.094 0 .173-.053.201-.135l1.338-3.932c.18-.529.657-.87 1.215-.87h.001c.558 0 1.035.341 1.215.87l1.338 3.932c.028.082.107.135.201.135h3.961c.556 0 1.032.342 1.213.87.056.166.079.335.069.499l-.003.047c-.033.344-.205.664-.495.888l-3.174 2.449c-.069.053-.099.145-.073.229l1.184 3.919c.161.531-.026 1.085-.475 1.411-.227.165-.489.248-.751.248h-.004c-.255 0-.51-.078-.734-.234l-3.352-2.335-.121-.038-.12.038-3.352 2.335z" fill="#FF368A"/></svg>