<svg width="200" height="300" viewBox="0 0 200 300" xmlns="http://www.w3.org/2000/svg" fill="none"><path d="M150 300c-19.802 0-39.109-3.96-57.673-12.129-17.822-7.673-33.911-18.564-47.772-32.673-13.861-13.861-24.752-29.703-32.426-47.525-8.168-18.564-12.129-37.871-12.129-57.673s3.96-39.109 12.129-57.673c7.673-17.822 18.564-33.663 32.426-47.772 13.861-13.861 29.95-24.752 47.772-32.673 18.564-7.921 37.871-11.881 57.673-11.881s39.109 3.96 57.673 12.129c17.822 7.673 33.664 18.564 47.773 32.426 13.861 13.861 24.752 29.95 32.673 47.772 7.921 18.564 12.129 37.871 12.129 57.673s-3.961 39.109-12.129 57.673c-7.673 17.822-18.565 33.911-32.673 47.773-14.109 13.861-29.951 24.752-47.773 32.673-18.564 7.921-37.871 11.881-57.673 11.881zm0-295.05c-19.059 0-37.871 3.96-55.693 11.634-17.079 7.426-32.673 18.069-46.287 31.436-13.366 13.614-24.01 29.208-31.436 46.287-7.673 17.822-11.634 36.634-11.634 55.693 0 19.059 3.96 37.871 11.634 55.693 7.426 17.079 18.069 32.673 31.436 46.287 13.366 13.367 28.96 24.01 46.287 31.436 17.822 7.673 36.634 11.633 55.693 11.633 19.059 0 37.871-3.96 55.693-11.633 17.079-7.426 32.673-18.069 46.287-31.436 13.367-13.366 24.01-28.96 31.436-46.287 7.673-17.822 11.634-36.634 11.634-55.693 0-19.059-3.961-37.871-11.634-55.693-7.426-17.079-18.069-32.673-31.436-46.287-13.614-13.366-29.208-24.01-46.287-31.436-17.822-7.673-36.634-11.634-55.693-11.634zm0 283.416c-75 0-138.366-63.366-138.366-138.366 0-75 63.366-138.366 138.366-138.366 75 0 138.366 63.366 138.366 138.366 0 75-63.366 138.366-138.366 138.366zm0-271.782c-72.277 0-133.416 61.139-133.416 133.416 0 72.277 61.139 133.416 133.416 133.416 72.277 0 133.416-61.139 133.416-133.416 0-72.277-61.139-133.416-133.416-133.416zM150 275.248c-16.584 0-32.921-3.466-48.267-9.901-14.852-6.436-28.218-15.594-39.852-26.981-11.634-11.633-20.792-25-26.98-39.851-6.683-15.347-9.901-31.683-9.901-48.267 0-22.525 7.673-46.288 22.277-68.07 2.475-3.713 7.673-4.703 11.386-2.228 3.713 2.475 4.703 7.673 2.228 11.386-12.871 19.307-19.555 39.604-19.555 59.158 0 58.911 49.753 108.663 108.663 108.663 58.911 0 108.663-49.752 108.663-108.663 0-58.911-49.752-108.663-108.663-108.663-19.307 0-39.851 6.683-59.158 19.554-1.733 1.238-3.96 1.733-6.188 1.238-2.228-.495-3.96-1.733-5.198-3.465-1.238-1.733-1.733-3.96-1.238-6.188.495-2.228 1.733-3.96 3.465-5.198 22.03-14.604 45.545-22.277 68.069-22.277 16.585 0 32.921 3.465 48.268 9.901 14.851 6.436 28.218 15.594 39.851 26.98 11.634 11.634 20.792 25 26.981 39.852 6.683 15.346 9.901 31.683 9.901 48.267 0 16.584-3.466 32.921-9.901 48.267-6.436 14.852-15.595 28.218-26.981 39.852-11.633 11.634-25 20.792-39.851 26.98-15.099 6.188-31.436 9.654-48.02 9.654zm-96.04-192.08c-.99 0-2.228.495-2.723 1.485-14.109 21.04-21.535 43.564-21.535 65.347 0 16.089 3.218 31.683 9.653 46.287 6.188 14.357 14.852 27.228 25.99 38.367 11.139 11.138 24.01 19.802 38.366 25.99 14.851 6.435 30.445 9.653 46.287 9.653 15.842 0 31.683-3.218 46.287-9.653 14.357-6.188 27.228-14.852 38.367-25.99 11.138-11.139 19.801-24.01 25.99-38.367 6.435-14.851 9.653-30.445 9.653-46.287 0-15.842-3.218-31.683-9.653-46.287-6.189-14.356-14.852-27.228-25.99-38.366-11.139-11.139-24.01-19.802-38.367-25.99-14.851-6.436-30.445-9.653-46.287-9.653-21.782 0-44.307 7.426-65.347 21.535-.743.495-1.238 1.238-1.485 1.98-.248.743 0 1.733.495 2.475.495.743 1.238 1.238 1.98 1.485.742.248 1.733 0 2.475-.495 20.049-13.366 41.336-20.297 61.881-20.297 61.634 0 113.614 51.98 113.614 113.614 0 61.634-51.98 113.614-113.614 113.614-61.634 0-113.614-51.98-113.614-113.614 0-20.297 6.931-41.832 20.297-61.881.99-1.485.495-3.465-.99-4.456-.495-.495-1.238-.495-1.733-.495zM68.813 76.98c-4.455 0-8.168-3.713-8.168-8.168 0-4.456 3.713-8.168 8.168-8.168 4.456 0 8.168 3.713 8.168 8.168 0 4.455-3.713 8.168-8.168 8.168zm0-11.634c-1.733 0-3.218 1.485-3.218 3.218 0 1.733 1.485 3.218 3.218 3.218 1.733 0 3.218-1.485 3.218-3.218 0-1.733-1.485-3.218-3.218-3.218zM132.674 215.841c-6.931 0-13.119-2.722-18.069-7.425l-34.654-34.654c-4.703-4.703-7.426-11.138-7.426-18.069 0-6.931 2.723-13.119 7.426-18.069 4.703-4.703 11.139-7.426 18.069-7.426 6.931 0 13.119 2.723 18.07 7.426l16.584 16.584 50.99-50.99c4.703-4.703 11.139-7.426 18.069-7.426 6.931 0 13.119 2.723 18.07 7.426 4.703 4.703 7.425 11.138 7.425 18.069 0 6.931-2.722 13.119-7.425 18.069l-69.06 69.06c-4.703 4.703-11.138 7.425-18.069 7.425zm-34.654-80.693c-5.445 0-10.643 2.228-14.604 5.941-3.96 3.96-5.941 9.158-5.941 14.604s2.228 10.644 5.941 14.604l34.653 34.653c3.96 3.961 9.158 5.941 14.604 5.941 5.445 0 10.643-2.228 14.604-5.941l69.059-69.059c3.961-3.96 5.941-9.158 5.941-14.604s-2.228-10.644-5.941-14.604c-3.96-3.96-9.158-5.941-14.604-5.941-5.445 0-10.643 2.228-14.604 5.941l-54.455 54.456-20.05-20.05c-3.712-3.713-8.91-5.941-14.604-5.941zm34.654 69.307c-3.713 0-7.178-1.485-9.901-4.208l-34.654-34.653c-2.723-2.723-4.208-6.188-4.208-9.901s1.485-7.178 4.208-9.901 6.188-4.208 9.901-4.208 7.179 1.485 9.901 4.208l24.753 24.752 59.406-59.158c2.723-2.723 6.188-4.208 9.901-4.208s7.178 1.485 9.901 4.208 4.208 6.188 4.208 9.901-1.485 7.178-4.208 9.901l-69.307 69.059c-2.723 2.723-6.188 4.208-9.901 4.208zm-34.654-57.673c-2.475 0-4.703.99-6.436 2.723-1.733 1.733-2.475 3.96-2.475 6.188 0 2.228.99 4.703 2.723 6.436l34.654 34.653c3.465 3.465 9.406 3.465 12.871 0l69.059-69.059c1.733-1.733 2.723-3.961 2.723-6.436s-.99-4.703-2.723-6.436c-3.465-3.465-9.405-3.465-12.871 0l-62.871 62.624-28.218-28.218c-1.733-1.485-3.96-2.475-6.436-2.475z" fill="#FAB7D8"/></svg>