<svg width="120" height="120" viewBox="0 0 120 120" xmlns="http://www.w3.org/2000/svg" fill="none"><path d="M72.6 50.7c-.9 0-1.7-.3-2.3-1-.6-.6-1-1.5-1-2.3 0-.9.3-1.7 1-2.3 1.3-1.3 3.4-1.3 4.7 0 1.3 1.3 1.3 3.4 0 4.7-.7.6-1.5.9-2.4.9zm0-4.6c-.3 0-.7.1-.9.4-.2.2-.4.6-.4.9 0 .3.1.7.4.9.2.2.6.4.9.4.3 0 .7-.1.9-.4.5-.5.5-1.3 0-1.8-.2-.2-.6-.4-.9-.4zM52.6 120c-2.7 0-5.3-1.1-7.2-3l-2.6-2.6c-2.3 2.1-5.3 3.3-8.4 3.3-3.3 0-6.5-1.3-8.9-3.7l-.9-.9-.9.9c-2.4 2.4-5.5 3.7-8.9 3.7-3.3 0-6.5-1.3-8.9-3.7-2.4-2.4-3.7-5.5-3.7-8.9 0-3.3 1.3-6.5 3.7-8.9l.9-.9-.8-.8c-2.4-2.4-3.7-5.5-3.7-8.9 0-3.1 1.2-6.1 3.3-8.4l-2.6-2.6c-1.9-1.9-3-4.5-3-7.2s1.1-5.3 3-7.2c1.9-1.9 4.5-3 7.2-3s5.3 1.1 7.2 3l12.3 12.3 42.8-42.8-12.3-12.3c-1.9-1.9-3-4.5-3-7.2s1.1-5.3 3-7.2c4-4 10.5-4 14.5 0l2.6 2.6c2.3-2.1 5.3-3.3 8.4-3.3 3.3 0 6.5 1.3 8.9 3.7l.9.9.8-.9c2.4-2.4 5.5-3.7 8.9-3.7 3.3 0 6.5 1.3 8.9 3.7 2.4 2.4 3.7 5.5 3.7 8.9 0 3.3-1.3 6.5-3.7 8.9l-.9.9.9.9c2.4 2.4 3.7 5.5 3.7 8.9 0 3.1-1.1 6.1-3.3 8.4l2.6 2.6c1.9 1.9 3 4.5 3 7.2s-1.1 5.3-3 7.2c-1.9 1.9-4.5 3-7.2 3s-5.3-1.1-7.2-3l-12.5-12.4-42.7 42.7 12.3 12.3c1.9 1.9 3 4.5 3 7.2s-1.1 5.3-3 7.2c-1.9 2.1-4.5 3.1-7.2 3.1zm-9.8-8.4l4 4c1.6 1.6 3.6 2.4 5.8 2.4 2.2 0 4.3-.9 5.8-2.4 1.6-1.6 2.4-3.6 2.4-5.8 0-2.2-.9-4.3-2.4-5.8l-13.7-13.8 45.6-45.6 13.7 13.8c1.6 1.6 3.6 2.4 5.8 2.4 2.2 0 4.3-.9 5.8-2.4 1.6-1.6 2.4-3.6 2.4-5.8 0-2.2-.9-4.3-2.4-5.8l-3.8-3.8.5-.7s.1-.1.2-.3c2.1-2.1 3.2-4.7 3.2-7.6 0-2.8-1.1-5.5-3.1-7.4l-2.3-2.3 2.3-2.3c2-2 3.1-4.6 3.1-7.4 0-2.8-1.1-5.5-3.1-7.4-2-2-4.6-3.1-7.4-3.1-2.8 0-5.5 1.1-7.4 3.1l-2.3 2.3-2.3-2.3c-2-2-4.6-3.1-7.4-3.1-2.8 0-5.5 1.1-7.4 3.1l-1 1-4-4c-3.2-3.2-8.4-3.2-11.6 0-1.7 1.4-2.6 3.4-2.6 5.6 0 2.2.9 4.3 2.4 5.8l13.7 13.7-45.5 45.7-13.8-13.8c-1.6-1.6-3.6-2.4-5.8-2.4-2.2 0-4.3.9-5.8 2.4-1.5 1.6-2.4 3.6-2.4 5.8 0 2.2.9 4.3 2.4 5.8l4 4-1 1c-2 2-3.1 4.6-3.1 7.4 0 2.8 1.1 5.5 3.1 7.4l2.3 2.3-2.3 2.3c-2 2-3.1 4.6-3.1 7.4 0 2.8 1.1 5.5 3.1 7.4 2 2 4.6 3.1 7.4 3.1 2.8 0 5.5-1.1 7.4-3.1l2.3-2.3 2.3 2.3c2 2 4.6 3.1 7.4 3.1 2.8 0 5.5-1.1 7.4-3.1l1.2-.8zm9.8 3.8c-1.5 0-2.9-.6-4-1.6l-42.3-42.4c-1.1-1.1-1.6-2.5-1.6-4s.6-2.9 1.6-4c1.1-1.1 2.5-1.6 4-1.6s2.9.6 4 1.6l42.4 42.4c1.1 1.1 1.6 2.5 1.6 4s-.6 2.9-1.6 4c-1.2 1-2.6 1.6-4.1 1.6zm-42.4-51.6c-1 0-1.9.4-2.6 1.1-.7.7-1.1 1.6-1.1 2.6s.4 1.9 1.1 2.5l42.4 42.4c.7.7 1.6 1.1 2.6 1.1s1.9-.4 2.6-1.1c.7-.7 1.1-1.6 1.1-2.6s-.4-1.9-1.1-2.6l-42.4-42.3c-.7-.7-1.6-1.1-2.6-1.1zm24.2 49.3c-2.1 0-4.1-.8-5.6-2.3l-19.6-19.6c-1.5-1.5-2.3-3.5-2.3-5.6 0-2.1.8-4.1 2.3-5.6l1-1 30.8 30.8-1 1c-1.5 1.5-3.5 2.3-5.6 2.3zm-24.2-31.2c-.9 1.1-1.3 2.4-1.3 3.7 0 1.6.6 3.1 1.7 4.2l19.6 19.6c1.1 1.1 2.6 1.7 4.2 1.7 1.4 0 2.7-.5 3.7-1.3l-27.9-27.9zm4.6 31.2c-2.1 0-4.1-.8-5.6-2.3-1.5-1.5-2.3-3.5-2.3-5.6 0-2.1.8-4.1 2.3-5.6l2.3-2.3 11.2 11.2-2.3 2.3c-1.5 1.5-3.4 2.3-5.6 2.3zm-3.2-13l-.9.9c-1.1 1.1-1.7 2.6-1.7 4.2s.6 3.1 1.7 4.2 2.6 1.7 4.2 1.7 3.1-.6 4.2-1.7l.9-.9-8.4-8.4zm31.2-11.7l-11.2-11.2 45.6-45.6 11.2 11.2-45.6 45.6zm-8.3-11.2l8.4 8.4 42.8-42.8-8.4-8.4-42.8 42.8zm75.3-19c-1.5 0-2.9-.6-4-1.6l-42.3-42.4c-1.1-1.1-1.6-2.5-1.6-4s.6-2.9 1.6-4c2.2-2.2 5.7-2.2 7.9 0l42.4 42.4c1.1 1.1 1.6 2.5 1.6 4s-.6 2.9-1.6 4c-1.1 1-2.5 1.6-4 1.6zm-42.4-51.6c-.9 0-1.8.4-2.6 1.1-.7.7-1.1 1.6-1.1 2.6s.4 1.9 1.1 2.6l42.4 42.4c.7.7 1.6 1.1 2.6 1.1s1.9-.4 2.6-1.1c.7-.7 1.1-1.6 1.1-2.6s-.4-1.9-1.1-2.5l-42.4-42.5c-.7-.7-1.6-1.1-2.6-1.1zm42.4 34.4l-30.7-30.8 1-1c1.5-1.5 3.5-2.3 5.6-2.3 2.1 0 4.1.8 5.6 2.3l19.6 19.6c1.5 1.5 2.3 3.5 2.3 5.6 0 2.1-.8 4.1-2.3 5.6l-1.1 1zm-27.9-30.8l27.9 27.9c.9-1.1 1.3-2.4 1.3-3.7 0-1.6-.6-3.1-1.7-4.2l-19.6-19.6c-1.1-1.1-2.6-1.7-4.2-1.7-1.3 0-2.6.5-3.7 1.3zm26.6 12.6l-11.2-11.2 2.3-2.3c1.5-1.5 3.5-2.3 5.6-2.3 2.1 0 4.1.8 5.6 2.3 1.5 1.5 2.3 3.5 2.3 5.6 0 2.1-.8 4.1-2.3 5.6l-2.3 2.3zm-8.4-11.2l8.4 8.4.9-.9c1.1-1.1 1.7-2.6 1.7-4.2s-.6-3.1-1.7-4.2-2.6-1.7-4.2-1.7-3.1.6-4.2 1.7l-.9.9zM47.4 75.9c-.8 0-1.7-.3-2.3-1-1.3-1.3-1.3-3.4 0-4.7l18.6-18.6c1.3-1.3 3.4-1.3 4.7 0 1.3 1.3 1.3 3.4 0 4.7l-18.6 18.6c-.7.7-1.5 1-2.4 1zm17.8-22.9l-18.7 18.7c-.5.5-.5 1.3 0 1.8s1.3.5 1.8 0l18.7-18.6c.5-.5.5-1.3 0-1.8-.5-.6-1.3-.6-1.8-.1z" fill="#FAB7D8"/></svg>