<svg width="34" height="34" viewBox="0 0 34 34" xmlns="http://www.w3.org/2000/svg" fill="none"><path d="M29.966 7.636l-.017-.065c1.44-.864 2.604-2.287 3.121-3.918-1.349.803-2.928 1.412-4.516 1.727-1.273-1.356-2.972-2.191-4.98-2.191-3.85 0-7.039 3.117-7.039 6.973 0 .591.049 1.163.114 1.664-3.39-.263-6.575-1.363-9.488-3.28-2.544-1.673-3.915-3.376-3.927-3.391-.374-.473-1.019-.636-1.572-.396-.553.24-.875.823-.784 1.419.032.206.68 4.271 3.131 7.814-.571-.089-.912-.248-.977-.28-.474-.281-1.055-.229-1.487.115-.434.346-.589.936-.416 1.463.056.171 1.222 3.57 5.477 5.371-.912.263-1.721.259-1.731.259h-.027c-.562 0-1.065.355-1.252.886-.191.54-.013 1.142.44 1.492.102.079 2.007 1.527 5.103 2.258-1.083.596-2.361.955-3.825 1.072-2.026.162-3.656-.222-3.669-.225-.674-.165-1.361.216-1.578.874-.217.659.109 1.374.749 1.641.192.08 4.747 1.962 9.278 1.962 3.145 0 5.501-.286 7.637-.929 2.666-.802 4.93-2.169 6.92-4.18.516-.521.512-1.362-.01-1.878-.522-.516-1.362-.512-1.878.01-3.548 3.586-7.631 4.321-12.669 4.321l-.354-.005c1.405-.645 2.611-1.565 3.573-2.739.321-.392.392-.931.181-1.393-.21-.461-.664-.762-1.17-.777-1.387-.041-2.612-.306-3.621-.636.749-.381 1.479-.921 2.054-1.689.276-.369.342-.854.173-1.283-.169-.429-.548-.739-1.001-.821-2.23-.401-3.711-1.298-4.671-2.182.539-.028 1.131-.11 1.77-.269.468-.117.837-.479.961-.946.125-.466-.014-.964-.362-1.299-1.204-1.16-2.079-2.598-2.705-3.954.218.156.446.314.683.471 2.637 1.752 6.972 3.841 12.655 3.841.413 0 .803-.193 1.054-.521s.335-.755.228-1.154c-.004-.013-.352-1.322-.352-2.707 0-1.144.456-2.224 1.285-3.041.833-.822 1.934-1.275 3.098-1.275 1.177 0 2.201.455 3.044 1.353.609.573 1.273 2.1 1.273 3.022v.805l.01.111-.01.154c0 3.019-.559 5.707-1.661 7.989-.319.661-.042 1.455.618 1.774.186.09.383.132.577.132.494 0 .968-.277 1.197-.751 1.277-2.645 1.925-5.722 1.925-9.144l-.009-.149.009-.116v-.93c1.364-.985 2.52-2.316 3.453-3.719 0 0-2.448 1.16-4.034 1.261z" fill="#FF368A" clip-path="url(#a)"/><defs><clipPath id="a"><path fill="#fff" d="M0 0h34v34h-34z"/></clipPath></defs></svg>