<svg width="20" height="20" viewBox="0 0 20 20" xmlns="http://www.w3.org/2000/svg" fill="none"><path d="M19.949 17.138c-.088-.422-.502-.694-.924-.606-.422.088-.694.502-.606.924.051.243-.01.493-.165.684-.09.111-.291.297-.625.297h-15.258c-.334 0-.535-.186-.625-.297-.156-.192-.216-.441-.165-.684.811-3.894 4.246-6.739 8.212-6.835l.207.004.208-.004c2.794.067 5.377 1.482 6.941 3.815.24.358.726.454 1.084.214.358-.24.454-.726.214-1.084-1.282-1.912-3.143-3.302-5.266-4.001 1.293-.97 2.132-2.515 2.132-4.253 0-2.929-2.383-5.313-5.313-5.313-2.929 0-5.313 2.383-5.313 5.313 0 1.738.839 3.285 2.134 4.254-1.186.391-2.299.998-3.274 1.8-1.786 1.469-3.028 3.519-3.497 5.771-.147.706.029 1.431.483 1.989.452.555 1.121.874 1.837.874h15.258c.716 0 1.386-.319 1.837-.874.454-.558.63-1.283.483-1.989zm-13.699-11.825c0-2.068 1.682-3.75 3.75-3.75s3.75 1.682 3.75 3.75c0 2.004-1.58 3.646-3.56 3.745l-.19-.002-.189.002c-1.98-.099-3.561-1.741-3.561-3.745z" fill="#fff"/></svg>