<svg width="120" height="120" viewBox="0 0 120 120" xmlns="http://www.w3.org/2000/svg" fill="none"><path d="M106.1 120h-96.1c-1.8 0-3.3-1.5-3.3-3.3 0-1.8 1.5-3.3 3.3-3.3h.7c.1-2.2.4-4.3.9-6.5v-.1c1.4-6.8 4.2-13.1 8.2-18.8v-47.8c0-22.2 18-40.2 40.2-40.2 22.2 0 40.2 18 40.2 40.2v47.8c4 5.6 6.8 12 8.2 18.7v.1c.4 2.1.7 4.3.9 6.5h.7c1.8 0 3.3 1.5 3.3 3.3 0 1.8-1.5 3.3-3.3 3.3l-3.9.1zm.1-2h3.9c.7 0 1.3-.6 1.3-1.3 0-.7-.6-1.3-1.3-1.3h-2.6v-1c-.1-2.4-.4-4.9-.9-7.2-1.4-6.6-4.1-12.8-8.1-18.3l-.2-.3v-48.4c-.1-21.1-17.2-38.2-38.3-38.2-21.1 0-38.2 17.1-38.2 38.2v48.5l-.2.3c-4 5.5-6.7 11.6-8.1 18.2v.1c-.5 2.4-.8 4.8-.9 7.2v1h-2.6c-.7 0-1.3.6-1.3 1.3 0 .7.5 1.2 1.3 1.2h96.2zm-15.2-2.6h-62v-31l.3-.3c2.5-2.3 5.2-4.3 8.1-6.1l.7-.4.5.6c1.7 1.8 3.6 3.5 5.7 4.8l.5.3v10.3c0 8.3 6.8 15.1 15.1 15.1s15.1-6.8 15.1-15.1v-10.3l.5-.3c2.1-1.3 4-3 5.7-4.8l.5-.6.7.4c2.9 1.7 5.7 3.7 8.1 6.1l.3.3v31h.2zm-60-2h58v-28.1c-2.1-1.9-4.3-3.6-6.8-5.1-1.5 1.6-3.2 3-5.1 4.2v9.3c0 9.5-7.7 17.1-17.1 17.1-9.4 0-17.1-7.7-17.1-17.1v-9.3c-1.8-1.2-3.5-2.6-5.1-4.2-2.4 1.5-4.7 3.2-6.8 5.1v28.1zm73.8 2h-11.2v-6.6h10.5l.1.8c.3 1.6.4 3.1.5 4.7l.1 1.1zm-9.2-2h7.1l-.3-2.6h-6.8v2.6zm-69.2 2h-11.2l.1-1.1c.1-1.6.3-3.2.5-4.7l.1-.8h10.5v6.6zm-9.1-2h7.1v-2.6h-6.8c-.1.9-.2 1.8-.3 2.6zm86.3-7.2h-10v-19.2l2.2 2.8.2.3.1.1c3.3 4.5 5.7 9.4 7.2 14.8l.3 1.2zm-8-2h5.3c-1.2-4-3-7.7-5.3-11.2v11.2zm-69.2 2h-10l.3-1.3c1.5-5.3 3.9-10.3 7.2-14.8l.1-.1.2-.3.1-.1 2.1-2.7v19.3zm-7.3-2h5.3v-11.2c-2.3 3.5-4.1 7.2-5.3 11.2zm42.2 2v-3.6c0-.7-.6-1.3-1.3-1.3-.7 0-1.3.6-1.3 1.3v3.6l-1.2-.2c-5.8-1.2-10-6.3-10-12.3v-8.9l1.4.6c3.3 1.4 6.8 2.1 10.4 2.2h1.4c3.6-.1 7.1-.8 10.4-2.2l1.4-.6v8.9c0 5.9-4.2 11.1-10 12.3l-1.2.2zm-11.8-18.4v5.9c0 4.6 3 8.6 7.2 10v-1c0-1.8 1.5-3.3 3.3-3.3 1.8 0 3.3 1.5 3.3 3.3v1c4.2-1.4 7.2-5.4 7.2-10v-5.9c-3.1 1.1-6.4 1.7-9.8 1.8h-1.5c-3.3-.1-6.6-.7-9.7-1.8zm46.1-2.5l-1.7-1.7c-2.8-2.9-6-5.4-9.5-7.5l-.9-.5.6-.9c3.2-4.8 4.9-10.3 4.9-16.1v-16.8l.6-.3c.4-.2.7-.6.8-1 .1-.7-.4-1.4-1.1-1.5l-1.4-.2v-1l-.1 1-3.1-.4-.9-.1v-.9c-.1-3.3-.3-6.3-.8-9.5-.1-.7-.8-1.2-1.5-1.1-.7.1-1.2.8-1.1 1.5.4 2.9.7 5.5.7 8.5v1.1l-1.1.1-3.1-.3-.9-.1v-.9c-.2-4.6-.7-9-1.5-13.1-.1-.7-.8-1.2-1.5-1-.7.1-1.2.8-1 1.5.8 3.8 1.2 7.9 1.4 12.2v1.1l-1.1-.1c-4.1-.2-8.3-.3-12.3-.3-5.9 0-12 .3-18 .8l-1.2.1.1-1.2c.2-1.9.5-3.7.9-5.8.1-.7-.3-1.4-1-1.5-.3-.1-.7 0-1 .2-.3.2-.5.5-.6.8-.5 2.5-.8 4.7-1 7l-.1.8-.8.1-5.1.6-.2-1 .1 1-2.2.3c-.3.1-.6.2-.9.5-.2.3-.3.6-.2 1 .1.6.6 1.1 1.2 1.1h1v16.8c0 5.7 1.7 11.3 4.9 16.1l.6.9-.9.5c-3.5 2.1-6.6 4.6-9.5 7.5l-1.7 1.7v-45.1c0-19.6 16-35.6 35.6-35.6s35.6 16 35.6 35.6v45.1zm-9.3-10.3c2.6 1.6 5 3.5 7.3 5.6v-40.4c0-18.5-15.1-33.6-33.6-33.6s-33.6 15.1-33.6 33.6v40.3c2.2-2.1 4.7-3.9 7.3-5.6-3.1-4.8-4.7-10.5-4.7-16.3v-15c-1.1-.4-2-1.4-2.2-2.6-.1-.9.1-1.7.6-2.5.5-.7 1.3-1.2 2.2-1.3l2.2-.3h.2c1.4-.2 2.9-.4 4.3-.5.2-2.1.5-4.1 1-6.4.2-.9.7-1.6 1.4-2.1s1.6-.7 2.5-.5c.9.2 1.6.7 2.1 1.4s.7 1.6.5 2.5c-.3 1.6-.6 3-.7 4.4 5.6-.5 11.3-.7 16.9-.7 3.7 0 7.5.1 11.3.3-.2-3.8-.7-7.4-1.3-10.8-.4-1.8.8-3.5 2.6-3.9 1.8-.3 3.5.8 3.9 2.6.8 4 1.3 8.2 1.5 12.6l1.2.1c-.1-2.5-.3-4.7-.7-7.2-.3-1.8 1-3.5 2.8-3.8.9-.1 1.7.1 2.5.6.7.5 1.2 1.3 1.3 2.2.5 3 .7 5.8.8 8.8l2.3.3 1.5.2c1.8.3 3.1 1.9 2.8 3.7-.1.9-.6 1.7-1.3 2.2v15.6c-.2 5.9-1.8 11.6-4.9 16.5zm-26.3 10h-1.8c-4-.3-7.9-1.5-11.4-3.5 0 0-.1 0-.1-.1l-.1-.1c-2.6-1.6-5-3.6-6.9-5.9l-.1-.1-.2-.3-.1-.1c-3.7-4.7-5.7-10.3-5.7-16.3v-17.3l.9-.1c8.4-1.1 17-1.6 25.5-1.6s17 .5 25.5 1.6l.9.1v17.3c0 6-2 11.6-5.7 16.3l-.1.1c-.1.1-.2.2-.2.3l-.1.1c-2 2.4-4.3 4.4-6.9 5.9l-.1.1s-.1 0-.1.1c-3.5 2-7.4 3.2-11.4 3.5h-1.8zm1.5-2.1l.2 1-.2-1c3.8-.3 7.4-1.4 10.6-3.2.1 0 .2-.1.2-.1 2.4-1.4 4.5-3.2 6.3-5.4.1-.2.3-.4.4-.5 3.4-4.3 5.2-9.5 5.2-15v-15.6c-16.1-2-32.6-2-48.7 0v15.5c0 5.5 1.8 10.7 5.2 15 .2.2.3.3.4.5 1.8 2.2 3.9 4 6.3 5.4.1 0 .2.1.2.1 3.2 1.9 6.8 3 10.5 3.2h2.5c.5.2.7.2.9.1zM42.2 27.7c-.4 0-.7-.1-1.1-.2-1.7-.6-2.7-2.5-2.1-4.2.6-1.8 2.5-2.7 4.2-2.1 1.7.6 2.7 2.5 2.1 4.2-.4 1.4-1.7 2.3-3.1 2.3zm.1-4.7c-.5 0-1.1.3-1.2.9-.3.8.1 1.5.8 1.7.7.2 1.4-.2 1.7-.8.3-.8-.1-1.5-.8-1.7-.3-.1-.4-.1-.5-.1z" fill="#FAB7D8"/></svg>