<svg width="34" height="28" viewBox="0 0 34 28" xmlns="http://www.w3.org/2000/svg" fill="none"><path d="M27.287 3.882c-2.364-.232-6.068-.507-10.287-.507-4.219 0-7.923.276-10.287.507-1.844.18-3.313 1.586-3.572 3.418-.322 2.271-.485 4.526-.485 6.7 0 2.175.163 4.429.485 6.7.259 1.832 1.728 3.237 3.572 3.418 2.364.232 6.068.507 10.287.507 4.219 0 7.923-.276 10.287-.507 1.844-.18 3.313-1.586 3.572-3.418.103-.726.775-1.232 1.501-1.129.726.103 1.232.775 1.129 1.501-.432 3.049-2.876 5.389-5.944 5.689-2.423.237-6.22.52-10.546.52s-8.123-.283-10.546-.52c-3.068-.3-5.512-2.64-5.943-5.689-.68-4.83-.68-9.315 0-14.145.432-3.049 2.876-5.389 5.943-5.689 2.423-.237 6.22-.52 10.546-.52s8.123.283 10.546.52c3.068.3 5.512 2.64 5.944 5.689.339 2.394.511 4.774.511 7.072-.069 1.761-2.586 1.763-2.656 0 0-2.175-.163-4.429-.485-6.7-.259-1.832-1.728-3.237-3.572-3.418zm-5.14 7.984c1.717.959 1.716 3.542 0 4.5l-5.701 3.308c-.811.471-1.781.472-2.593.004-.815-.469-1.302-1.312-1.302-2.254v-6.617c0-.942.487-1.785 1.302-2.254.813-.468 1.782-.466 2.593.004l5.701 3.308zm-1.415 2.25l-5.525-3.206v6.412l5.525-3.206z" fill="#FF368A"/></svg>