<svg width="1184" height="408" viewBox="0 0 1184 408" fill="none" xmlns="http://www.w3.org/2000/svg">
<g opacity="0.1">
<path d="M599.009 399.916C551.858 406.089 504.283 408.357 456.763 406.699C180.006 399.154 -1.93954e-05 307.241 -1.22063e-05 225.006C-6.42294e-06 158.853 89.9271 105.198 165.978 85.3828C121.318 113.963 58.0053 139.418 59.0668 208.62C59.9767 271.192 189.711 374.309 468.516 394.048C547.828 399.611 567.845 399.916 599.009 399.916Z" fill="#003C71"/>
<path d="M156.112 213.723C156.112 279.4 241.767 337.627 373.86 373.811C207.642 340.06 94.9297 274.535 94.9297 198.976C94.9297 89.2869 334.719 -3.83135 630.217 0.121454C733.429 1.48973 771.735 10.8396 786.935 13.8802C761.17 13.8802 784.427 14.7923 691.324 14.6403C409.809 14.2602 156.112 103.882 156.112 213.723Z" fill="#0971CE"/>
<path d="M1184 139.825C1174.69 133.107 1164.92 127.049 1154.76 121.695C1064.74 73.9828 911.913 50.5437 739.863 50.5437C463.52 50.5437 224.473 142.1 224.473 241.849C225.246 266.141 234.736 289.347 251.211 307.236C245.907 303.663 240.833 299.762 236.019 295.554C225.266 286.246 216.542 274.832 210.388 262.018C204.233 249.205 200.78 235.266 200.242 221.065C200.242 121.24 439.593 26.4219 716.24 26.4219C888.289 26.4219 1040.51 53.1228 1130.22 100.835C1150.06 110.982 1168.2 124.134 1184 139.825Z" fill="#00AEEF"/>
</g>
</svg>
