<svg width="148" height="107" viewBox="0 0 148 107" fill="none" xmlns="http://www.w3.org/2000/svg">
<path d="M120.602 64.8972C125.33 42.0297 111.896 19.3768 90.5975 14.3006C69.2987 9.22442 48.1999 23.6471 43.4719 46.5146C38.7439 69.3821 52.1772 92.035 73.476 97.1112C94.7748 102.187 115.874 87.7647 120.602 64.8972Z" fill="#FF368A"/>
<path d="M0.0673828 37.9817C2.96888 44.5716 5.87038 50.9218 8.77188 57.5117C10.7806 56.5532 12.6778 55.4748 14.5749 54.5163C11.5618 47.9264 8.77189 41.4564 5.87039 34.9863C3.86165 35.9449 1.96452 37.0232 0.0673828 37.9817Z" fill="#FF368A"/>
<path d="M142.129 35.8252C139.228 42.4151 136.326 48.7653 133.425 55.3551C135.434 56.3137 137.331 57.392 139.228 58.3505C142.129 51.8805 145.031 45.4104 147.932 38.8206C146.035 37.8621 144.138 36.9035 142.129 35.8252Z" fill="#FF368A"/>
<path d="M136.215 20.9677C134.095 25.6405 131.975 30.3133 129.743 35.1059C127.399 33.9078 125.056 32.7096 122.824 31.5115C123.382 30.3133 123.94 29.235 124.386 28.2765C126.73 23.1244 128.404 17.9723 128.292 12.1013C128.18 8.98613 127.734 5.87093 126.06 3.23498C124.163 0.239589 120.927 -0.838751 117.914 0.718852C116.463 1.55756 115.012 2.6359 113.896 3.95387C108.539 10.5437 108.539 20.2488 113.784 27.3179C115.124 29.1152 116.798 30.7926 118.471 32.5898C117.467 34.2672 116.351 35.9447 115.347 37.7419C108.874 20.9677 93.4739 9.22576 75.6185 9.22576C57.7631 9.22576 42.3628 20.9677 35.8902 37.7419C35.8902 37.6221 35.7786 37.6221 35.7786 37.6221C34.9975 36.4239 34.3279 35.2258 33.5467 34.1474C34.5511 33.0691 35.5554 32.2304 36.4482 31.152C41.2469 25.6405 43.144 19.1705 41.1353 11.7419C40.0193 7.42853 37.7874 3.71424 33.9931 1.43775C30.0872 -0.958567 26.1814 0.359405 24.2842 4.67277C22.6103 8.50687 22.4987 12.5806 23.0567 16.7741C23.8378 22.2857 26.0698 27.3179 28.6365 32.2304C28.7481 32.5898 28.9713 32.8294 29.1945 33.4285C25.9582 34.9861 22.8335 36.5437 19.5972 37.9815C16.9189 32.1106 14.3521 26.599 11.7854 20.9677C9.7767 22.046 7.99116 23.0046 5.98242 24.0829C11.4506 36.1843 16.9189 48.1659 22.4987 60.1474C24.5074 59.0691 26.2929 58.1106 28.3017 57.152C25.8466 51.7603 23.3914 46.4884 21.0479 41.2165C24.3958 39.5391 27.5205 37.9815 30.8684 36.4239C30.8684 36.4239 30.8684 36.4239 30.8684 36.3041C30.8684 36.3041 30.8684 36.3041 30.98 36.3041C31.9844 37.8617 32.9887 39.4193 33.9931 40.9769C34.1047 41.0967 34.1047 41.2165 34.2163 41.3364L34.5511 41.8156C33.3235 46.129 32.6539 50.8018 32.6539 55.4746C32.6539 76.8018 46.1571 94.7741 64.4589 100.046C65.2401 100.286 65.9096 100.405 66.6908 100.645C66.914 100.645 67.1372 100.765 67.3604 100.765C67.472 100.765 67.5836 100.765 67.8068 100.885C70.3735 101.364 72.9402 101.604 75.6185 101.604C78.52 101.604 81.3099 101.244 83.9882 100.765V100.885C84.9926 100.645 85.997 100.405 87.0013 100.166V100.046C105.192 94.6543 118.583 76.8018 118.583 55.5944C118.583 50.8018 117.914 46.129 116.574 41.8156C117.021 41.2165 117.244 40.7373 117.244 40.7373C118.471 38.8202 119.699 36.9032 120.927 34.9861C121.038 34.8663 121.15 34.7465 121.15 34.7465C123.605 36.0645 125.948 37.2626 128.292 38.4608C125.502 44.6912 122.601 50.9216 119.811 57.2718C121.819 58.3502 123.605 59.3087 125.502 60.3871C131.082 48.2857 136.55 36.3041 142.018 24.3225C140.01 23.0046 138.112 22.046 136.215 20.9677ZM31.538 31.2718C30.3104 28.5161 29.0829 26 27.9669 23.2442C26.5161 19.7695 25.735 16.0553 25.8466 12.2212C25.8466 10.0645 26.1814 7.90779 27.1857 5.99074C28.3017 3.71424 29.9756 3.23498 32.096 4.43314C34.8859 5.99074 36.6714 8.7465 37.6758 11.8617C39.9077 18.9308 38.0106 24.8018 33.2119 29.8341C32.7655 30.3133 32.2076 30.6728 31.538 31.2718ZM35.667 55.4746C35.667 51.8801 36.1134 48.5253 36.8946 45.1705L37.0062 45.4101C37.5642 46.129 38.0106 46.8479 38.5685 47.447C43.702 53.917 48.947 60.2672 54.0804 66.7373C57.5399 71.0506 60.9994 75.2442 63.5661 80.3963C65.4632 84.2304 66.6908 88.1843 66.356 92.4976C66.2444 93.9354 65.798 95.3732 65.4633 96.6912V96.811C48.2774 92.0184 35.667 75.364 35.667 55.4746ZM75.5069 98.2488C73.1634 98.2488 70.9315 98.0092 68.6995 97.6497L68.8111 97.2903C69.1459 95.3732 69.4807 93.4562 69.5923 91.6589C69.8155 86.0276 67.8068 80.9953 65.1285 76.3225C62.3386 71.5299 58.8791 67.3364 55.4196 63.1428C49.8398 56.1935 44.3716 49.1244 38.7917 42.1751C38.6801 42.0553 38.4569 41.6958 38.1222 41.0967C43.5904 24.5622 58.3211 12.7004 75.6185 12.7004C89.1217 12.7004 100.951 19.8894 108.205 30.9124C100.728 39.8986 93.0275 47.9262 82.9839 53.1981C83.5418 51.2811 84.0998 49.4838 84.4346 47.6866C85.3274 42.7741 84.9926 37.8617 84.5462 33.0691C84.4346 31.3917 84.4346 29.8341 84.4346 28.1566C84.4346 27.6774 84.6578 27.1981 84.6578 26.8387C86.5549 27.1981 88.6753 29.8341 89.0101 31.9907C89.2333 33.788 88.8985 34.8663 86.7781 38.5806C87.5593 39.2995 88.3405 39.8986 89.0101 40.6175C94.1435 35.705 92.5812 26.2396 86.1086 23.6036C84.0998 22.7649 82.3143 23.6036 81.6447 25.8801C80.8635 28.2765 81.0867 30.6728 81.3099 33.1889C81.7563 37.8617 82.0911 42.6543 81.1983 47.3271C80.9751 48.4055 80.7519 49.6036 80.3056 50.5622C78.2968 55.7142 72.8286 56.6728 69.3691 52.599C67.472 50.4424 66.6908 47.6866 66.1328 44.9308C65.4632 41.4562 65.2401 37.8617 66.1328 34.3871C67.5836 28.8755 72.717 26.3594 77.0693 29.1152C77.4041 29.3548 77.7388 29.5944 78.1852 29.9539C78.2968 28.7557 78.52 27.6774 78.52 26.599C78.52 26.3594 78.0736 26 77.8504 25.8801C72.8286 23.2442 66.6908 25.5207 64.1241 30.9124C62.4501 34.3871 62.1154 38.1013 62.4501 41.9354C62.7849 46.129 63.6777 50.2027 65.9096 53.7972C65.9096 53.7972 65.9096 53.917 65.9096 54.2765C57.4283 49.7235 50.5093 43.1336 43.702 36.1843C43.2556 37.2626 42.8092 38.1013 42.4744 39.0599C42.3628 39.2995 42.586 39.7788 42.8092 40.0184C47.1615 44.4516 51.7369 48.6451 56.6471 52.3594C59.6602 54.6359 62.7849 56.553 66.1328 57.9907C69.0343 59.1889 71.8242 59.4285 74.9489 59.1889C82.9839 58.5898 89.2333 54.0368 95.3711 49.1244C100.281 45.0506 104.745 40.3778 108.874 35.3456C109.097 35.1059 109.321 34.8663 109.655 34.3871C110.883 36.6636 111.887 38.94 112.78 41.4562L112.222 42.1751C112.111 42.2949 112.111 42.4147 111.999 42.4147C108.093 47.447 104.187 52.4792 100.17 57.6313C96.1522 62.6635 92.1348 67.6958 88.2289 72.8479C85.7738 76.0829 83.765 79.6774 82.5375 83.6313C80.9751 88.3041 80.5287 93.0967 82.3143 98.0092C80.194 98.0092 77.8504 98.2488 75.5069 98.2488ZM115.347 55.4746C115.347 75.2442 102.736 92.0184 85.7738 96.811V96.6912C84.6578 94.2949 84.4346 91.7788 84.6578 89.2626C85.2158 84.47 87.0013 80.1566 89.7912 76.3225C93.1391 71.6497 96.7102 67.0967 100.281 62.6635C104.634 57.152 109.097 51.6405 113.45 46.129C113.561 46.0092 113.673 45.8894 113.784 45.7695C113.896 45.6497 114.008 45.4101 114.231 45.1705C114.9 48.4055 115.347 51.8801 115.347 55.4746ZM120.145 29.3548C111.776 22.8848 110.995 12.341 116.463 5.99074C117.244 5.15203 118.248 4.43314 119.253 3.83406C120.815 3.11517 122.043 3.59443 123.047 5.03222C124.274 6.82945 124.721 9.10595 124.944 11.2626C125.279 16.6543 123.717 21.5668 121.596 26.2396C121.15 27.3179 120.703 28.2765 120.145 29.3548Z" fill="white"/>
</svg>
